<svg width="79" height="24" viewBox="0 0 79 24" fill="none" xmlns="http://www.w3.org/2000/svg">
<path d="M71.2277 13.0484L67.9326 16.114L67.8243 16.0312C68.2003 14.629 68.5764 13.2332 68.9588 11.8374C69.9148 8.36386 70.8708 4.89668 71.8332 1.42313C71.8332 1.41038 71.8332 1.39763 71.8332 1.39126C71.8332 1.21918 71.9224 1.05984 72.0754 0.976983C72.3049 0.938742 72.2985 1.20005 72.3813 1.34664C72.8721 2.25168 73.2418 3.21408 73.8154 4.0745C74.3571 5.38744 74.9881 6.694 75.6701 7.93684C75.7529 8.0643 75.8039 8.2109 75.8039 8.36386C75.8039 8.62517 75.6701 8.87374 75.447 9.01396C74.0129 10.346 72.6235 11.7036 71.2277 13.0484Z" fill="#F07A25"/>
<path d="M71.2275 13.0482C72.6297 11.7033 74.0191 10.3458 75.4404 9.0201C75.6635 8.87989 75.7973 8.63132 75.7973 8.37001C75.7973 8.21704 75.7527 8.07045 75.6635 7.94298C74.9752 6.70015 74.3505 5.39359 73.8088 4.08065L74.7903 0.785553C75.1982 1.56949 75.536 2.21322 75.8611 2.86331C76.6832 4.5013 77.4863 6.15203 78.3404 7.77727C78.4551 7.93661 78.5124 8.12782 78.5124 8.32539C78.5124 8.65044 78.3467 8.95637 78.0663 9.12845C75.7336 11.2891 73.4455 13.5007 71.1447 15.6932C70.9981 15.8844 70.8005 16.0309 70.5711 16.1074C70.8642 15.1068 71.0873 14.0807 71.2275 13.0482Z" fill="#0C8D48"/>
<path fill-rule="evenodd" clip-rule="evenodd" d="M19.5514 8.52964C20.0358 8.75271 20.3481 9.2371 20.3481 9.7661C20.3481 9.9828 20.2971 10.1995 20.1951 10.3907C19.8127 11.6335 19.5004 12.8955 19.1562 14.1447C19.0606 15.3302 18.0664 16.2416 16.8809 16.2416C16.7471 16.2416 16.6132 16.2288 16.4794 16.2097C11.2085 16.2097 5.94398 16.2161 0.673106 16.2224C0.258829 16.2224 0.105865 16.1842 0.239709 15.7189C1.59726 10.907 2.9357 6.09497 4.26776 1.28298C4.29962 0.996174 4.54182 0.773102 4.82862 0.773102C4.85412 0.773102 4.88598 0.773102 4.91148 0.779475C10.3353 0.792222 15.7655 0.785849 21.1894 0.798596C21.2659 0.785849 21.3423 0.773102 21.4188 0.773102C22.0243 0.773102 22.5087 1.26386 22.5087 1.86297C22.5087 2.01593 22.4768 2.16252 22.4131 2.30274C22.0052 3.90886 21.559 5.50223 21.0938 7.09561C20.8452 7.79669 20.2716 8.33206 19.5514 8.52964ZM0.97266 19.1288H1.59089L1.01727 21.5252C0.934419 21.8821 0.947166 22.1498 1.06826 22.3282C1.18299 22.5067 1.40606 22.5959 1.72473 22.5959C2.04341 22.5959 2.29835 22.5067 2.5023 22.3282C2.70625 22.1498 2.85284 21.8821 2.9357 21.5252L3.50931 19.1288H4.13391L3.54755 21.5826C3.42008 22.1179 3.19064 22.5131 2.86559 22.7808C2.54054 23.0485 2.10714 23.1759 1.57814 23.1759C1.04914 23.1759 0.685853 23.0421 0.488275 22.7808C0.290697 22.5195 0.258829 22.1179 0.386299 21.5826L0.97266 19.1288ZM32.3685 7C34.1403 7 35.9121 6.96814 37.684 7.01912C37.7222 7.01912 37.7605 7.0255 37.7987 7.0255C38.2448 7.0255 38.6081 6.68133 38.64 6.24156C39.0543 4.66093 39.5004 3.08668 39.8892 1.49968C39.9019 1.09178 40.2334 0.773102 40.6349 0.773102C40.6923 0.773102 40.7432 0.779475 40.8006 0.792222C41.0938 0.811343 41.387 0.82409 41.6865 0.82409C41.9733 0.82409 42.2665 0.811343 42.5533 0.792222C43.025 0.766728 43.1333 0.906945 42.9995 1.37221C42.3302 3.74315 41.6929 6.12683 41.0428 8.49777C40.4182 10.7859 39.7808 13.0739 39.1754 15.3684C39.1626 15.8464 38.7738 16.2288 38.2958 16.2288C38.2257 16.2288 38.1556 16.2224 38.0855 16.2033C37.7923 16.1778 37.4991 16.1651 37.206 16.1651C36.9383 16.1651 36.6706 16.1778 36.4029 16.197C35.9504 16.2161 35.8803 16.0695 36.0014 15.6425C36.4858 13.9853 36.9192 12.3219 37.3972 10.6584C37.5374 10.174 37.4736 9.97642 36.9 9.9828C33.2926 10.0083 29.6789 10.0083 26.0715 9.98917C26.0332 9.9828 25.995 9.9828 25.9567 9.9828C25.5616 9.9828 25.2365 10.2887 25.2174 10.6839C24.7968 12.3537 24.306 14.0108 23.8662 15.6743C23.8407 15.9739 23.5858 16.2097 23.2799 16.2097C23.2416 16.2097 23.2034 16.2033 23.1652 16.197C22.8592 16.1778 22.5406 16.1715 22.2346 16.1715C21.916 16.1715 21.5973 16.1842 21.285 16.2033C20.6285 16.2479 20.7369 15.9101 20.8516 15.5022C21.559 12.9337 22.2665 10.3588 22.9676 7.79032C23.5603 5.6297 24.153 3.46909 24.733 1.30848C24.7522 1.01529 24.9943 0.785849 25.2875 0.785849C25.313 0.785849 25.3449 0.785849 25.3704 0.792222C26.0396 0.82409 26.7152 0.82409 27.3844 0.792222C27.8497 0.773102 27.9007 0.945186 27.7859 1.35309C27.3079 3.05481 26.8682 4.76928 26.3774 6.471C26.2436 6.92352 26.3583 7.01275 26.7853 7.00638C28.6464 6.98726 30.5074 7 32.3685 7ZM46.7216 0.84321C46.9447 0.84321 47.1677 0.84321 47.3908 0.84321C48.2831 0.84321 48.2895 0.84321 48.06 1.66539C46.8108 6.19057 45.5616 10.7221 44.306 15.2473C44.0256 16.2607 44.0128 16.2607 42.974 16.2607C42.4832 16.2607 41.9861 16.2479 41.4953 16.2671C41.0555 16.2862 40.9663 16.1396 41.0874 15.7062C42.2793 11.4614 43.452 7.21033 44.6247 2.95921C44.7713 2.51306 44.8924 2.06055 44.9816 1.60166C44.9816 1.58891 44.9816 1.58254 44.9816 1.56979C44.9816 1.14276 45.3258 0.804969 45.7528 0.804969C45.8293 0.804969 45.9121 0.817716 45.9823 0.84321C46.1161 0.855957 46.2563 0.855957 46.3965 0.855957C46.4985 0.849584 46.6132 0.849584 46.7216 0.84321ZM63.981 9.116C63.4647 9.57489 62.9485 10.021 62.445 10.4863C60.5138 12.2645 58.5954 14.0427 56.6706 15.8273C56.3519 16.1268 56.1862 16.1778 55.9376 15.7381C54.5164 13.246 53.0696 10.7731 51.6292 8.29382C51.5846 8.23009 51.5272 8.16635 51.4698 8.11536C51.2531 8.38942 51.1129 8.72722 51.081 9.07776C50.4756 11.232 49.8892 13.3926 49.3156 15.5596C49.3028 15.9293 49.0033 16.2224 48.6336 16.2224C48.589 16.2224 48.5444 16.2161 48.4998 16.2097C47.8561 16.1587 47.1996 16.1906 46.5495 16.2033C46.2499 16.2097 46.0842 16.1651 46.1926 15.7827C47.5438 10.907 48.8886 6.02486 50.227 1.14276C50.2589 1.09178 50.2971 1.04079 50.3417 0.996174C50.603 1.23199 50.8134 1.5188 50.96 1.83747C52.7828 4.87126 54.5992 7.90504 56.4157 10.9452C56.8236 11.6272 56.8108 11.6144 57.4227 11.0918C60.7114 8.28745 64.0001 5.48311 67.3016 2.69152C67.9644 2.13066 68.6209 1.56341 69.3411 0.95156C69.3538 1.02804 69.3602 1.1109 69.3602 1.19375C69.3602 1.44232 69.2965 1.69088 69.1818 1.90758C67.9326 6.49012 66.6642 11.0663 65.4214 15.6488C65.4023 15.9739 65.1282 16.2288 64.8032 16.2288C64.7649 16.2288 64.7267 16.2224 64.6948 16.2161C64.3762 16.1969 64.0511 16.1906 63.7324 16.1906C63.4265 16.1906 63.1142 16.1969 62.8083 16.2161C62.2729 16.2479 62.2283 16.0504 62.3621 15.5851C62.9294 13.5838 63.4711 11.5698 64.0192 9.56215C64.0511 9.50478 64.0702 9.44105 64.0702 9.37732C64.0702 9.26897 64.0384 9.17974 63.981 9.116ZM75.3131 23.0739L76.2563 19.1288H78.4042L78.2704 19.6705H76.7471L76.5113 20.6584H78.0345L77.9007 21.2193H76.3774L76.0715 22.494H77.5948L77.4609 23.0676H75.3131V23.0739ZM75.2557 20.0848C75.1155 19.9318 74.9561 19.8171 74.7777 19.7406C74.5992 19.6641 74.4016 19.6259 74.185 19.6259C73.7643 19.6259 73.3883 19.7661 73.0568 20.0402C72.7254 20.3206 72.5087 20.6775 72.4068 21.1173C72.3048 21.5443 72.3494 21.8949 72.5406 22.1689C72.7318 22.443 73.0186 22.5832 73.4138 22.5832C73.6432 22.5832 73.8663 22.5449 74.0957 22.4557C74.3188 22.3729 74.5482 22.2454 74.7777 22.0797L74.6056 22.8063C74.408 22.9337 74.2041 23.023 73.9874 23.0867C73.777 23.1504 73.554 23.1759 73.3245 23.1759C73.0313 23.1759 72.77 23.1249 72.547 23.0293C72.3239 22.9337 72.1391 22.7871 71.9925 22.5896C71.8523 22.4047 71.7567 22.1817 71.7184 21.9267C71.6802 21.6718 71.6929 21.3977 71.763 21.1045C71.8331 20.8177 71.9479 20.5437 72.1072 20.2887C72.2665 20.0338 72.4705 19.8107 72.7063 19.6195C72.9421 19.4283 73.1971 19.2753 73.4711 19.1797C73.7388 19.0778 74.0192 19.0332 74.306 19.0332C74.5355 19.0332 74.7394 19.065 74.9307 19.1351C75.1219 19.2052 75.2939 19.3072 75.4533 19.4411L75.2557 20.0848ZM70.5266 23.0739L70.3354 22.0606H68.8121L68.1238 23.0739H67.4673L70.3099 18.9694L71.1894 23.0739H70.5266ZM69.169 21.5252H70.2398L70.0613 20.6265C70.0549 20.5692 70.0422 20.5054 70.0358 20.4289C70.0294 20.3525 70.0231 20.2696 70.0231 20.1804C69.9784 20.2632 69.9402 20.3461 69.8956 20.4226C69.8574 20.4991 69.8127 20.5628 69.7745 20.6265L69.169 21.5252ZM65.3577 23.0739L66.3009 19.1288H68.4488L68.3213 19.6705H66.7981L66.5623 20.652H68.0855L67.9517 21.2129H66.4284L65.9823 23.0676H65.3577V23.0739ZM63.35 21.3085L62.9294 23.0739H62.343L63.2863 19.1288H64.1594C64.4144 19.1288 64.612 19.1479 64.7394 19.1797C64.8733 19.2116 64.9816 19.269 65.0581 19.3518C65.1537 19.4474 65.2175 19.5685 65.2429 19.7215C65.2684 19.8745 65.2621 20.0402 65.2238 20.2186C65.1473 20.5373 65.0135 20.7795 64.8223 20.9643C64.6311 21.1428 64.3825 21.2511 64.083 21.283L64.9753 23.0803H64.2678L63.4138 21.3149H63.35V21.3085ZM63.5094 20.8114H63.6241C63.9555 20.8114 64.1849 20.7731 64.3124 20.6903C64.4399 20.6138 64.5291 20.4736 64.5737 20.2696C64.6247 20.0529 64.6056 19.9 64.51 19.8107C64.4144 19.7215 64.2104 19.6769 63.8981 19.6769H63.7834L63.5094 20.8114ZM59.4813 23.0739L60.4246 19.1288H62.5725L62.4386 19.6705H60.9153L60.6795 20.6584H62.2028L62.0689 21.2193H60.5457L60.2398 22.494H61.763L61.6228 23.0676H59.4813V23.0739ZM58.7993 19.6705L57.9835 23.0739H57.3589L58.1747 19.6705H57.155L57.2825 19.1288H59.9466L59.8191 19.6705H58.7993ZM52.4195 23.0739L53.401 18.9694L55.2684 21.385C55.3194 21.4551 55.3704 21.5252 55.415 21.6017C55.466 21.6782 55.517 21.7674 55.568 21.863L56.2245 19.1288H56.8044L55.8229 23.2269L53.9173 20.7731C53.8663 20.7094 53.8216 20.6393 53.777 20.5628C53.7324 20.4863 53.6942 20.4098 53.6559 20.3333L52.9995 23.0739H52.4195ZM50.8962 23.0739L51.8395 19.1288H52.4641L51.5208 23.0739H50.8962ZM46.2818 22.2836L46.8363 22.0478C46.8427 22.2263 46.8937 22.3601 47.002 22.4493C47.104 22.5386 47.257 22.5896 47.4545 22.5896C47.6394 22.5896 47.7987 22.5386 47.9325 22.4302C48.0664 22.3219 48.1556 22.1817 48.2002 22.0032C48.2576 21.7738 48.1174 21.5634 47.7859 21.385C47.7413 21.3595 47.7031 21.3404 47.6776 21.3276C47.3016 21.1173 47.0657 20.9261 46.9701 20.754C46.8682 20.5819 46.8491 20.3716 46.9128 20.123C46.9893 19.8043 47.1613 19.543 47.4163 19.3455C47.6776 19.1479 47.9772 19.0459 48.3277 19.0459C48.6081 19.0459 48.8376 19.1033 48.9969 19.218C49.1626 19.3327 49.2519 19.492 49.2774 19.7024L48.7292 19.9637C48.6846 19.8362 48.6209 19.747 48.538 19.6896C48.4615 19.6323 48.3596 19.6068 48.2448 19.6068C48.0791 19.6068 47.9325 19.6514 47.8114 19.7406C47.6903 19.8298 47.6139 19.9509 47.5756 20.1039C47.5183 20.3397 47.684 20.5628 48.0664 20.7667C48.0983 20.7859 48.1174 20.7922 48.1365 20.805C48.4743 20.9834 48.691 21.1619 48.793 21.334C48.8949 21.5061 48.9141 21.7228 48.8503 21.9777C48.7611 22.3537 48.5763 22.6469 48.2958 22.87C48.0154 23.0867 47.6776 23.2014 47.2888 23.2014C46.9638 23.2014 46.7088 23.1249 46.5367 22.972C46.3647 22.7935 46.2754 22.5704 46.2818 22.2836ZM45.6317 19.6705L44.8159 23.0739H44.1913L45.0071 19.6705H43.9873L44.1148 19.1288H46.7789L46.6515 19.6705H45.6317ZM39.2582 23.0739L40.2397 18.9694L42.1072 21.385C42.1582 21.4551 42.2091 21.5252 42.2601 21.6017C42.3111 21.6782 42.3621 21.7674 42.4131 21.863L43.0696 19.1288H43.6496L42.668 23.2269L40.7624 20.7731C40.7114 20.7094 40.6604 20.6393 40.6221 20.5628C40.5775 20.4863 40.5393 20.4098 40.5011 20.3333L39.8446 23.0739H39.2582ZM36.3902 23.0739L37.3334 19.1288H39.4813L39.3538 19.6705H37.8306L37.5947 20.6584H39.118L38.9842 21.2193H37.4609L37.155 22.494H38.6782L38.538 23.0676H36.3902V23.0739ZM35.3513 21.1237C35.3513 21.0918 35.3576 21.0089 35.3768 20.8687C35.3895 20.754 35.4023 20.6584 35.4086 20.5819C35.3704 20.6711 35.3258 20.7604 35.2748 20.8496C35.2238 20.9388 35.1664 21.0344 35.1027 21.1237L33.5922 23.2269L33.1014 21.079C33.0823 20.9898 33.0632 20.907 33.0568 20.8241C33.0441 20.7412 33.0377 20.6584 33.0377 20.5819C33.0186 20.6648 32.9867 20.7476 32.9548 20.8432C32.923 20.9325 32.8847 21.0281 32.8337 21.13L31.9542 23.0739H31.3806L33.2735 18.963L33.8153 21.4551C33.8216 21.4933 33.8344 21.5571 33.8471 21.6527C33.8599 21.7419 33.879 21.8566 33.8981 21.9905C33.9619 21.8757 34.0511 21.7355 34.1722 21.5571C34.204 21.5124 34.2295 21.4742 34.2423 21.4487L35.944 18.963L35.8866 23.0739H35.313L35.3513 21.1237ZM29.3921 23.0739L29.8255 21.2703L29.0415 19.1288H29.698L30.1824 20.4672C30.1951 20.4991 30.2079 20.5437 30.2206 20.601C30.2334 20.6584 30.2525 20.7158 30.2652 20.7795C30.3035 20.7158 30.3417 20.6584 30.3863 20.601C30.4246 20.5437 30.4692 20.4927 30.5074 20.4481L31.6483 19.1288H32.2729L30.4373 21.2703L30.0039 23.0739H29.3921ZM27.8369 23.0739L27.6457 22.0606H26.1225L25.4341 23.0739H24.7776L27.6202 18.9694L28.4998 23.0739H27.8369ZM26.4794 21.5252H27.5501L27.3717 20.6265C27.3653 20.5692 27.3525 20.5054 27.3462 20.4289C27.3398 20.3525 27.3334 20.2696 27.3334 20.1804C27.2888 20.2632 27.2506 20.3461 27.206 20.4226C27.1613 20.4991 27.1231 20.5628 27.0849 20.6265L26.4794 21.5252ZM23.7388 21.3021L23.3117 23.0739H22.7254L23.6687 19.1288H24.6119C24.8924 19.1288 25.0963 19.1415 25.2174 19.1734C25.3385 19.2052 25.4469 19.2562 25.5234 19.3263C25.619 19.4156 25.6891 19.543 25.7209 19.696C25.7528 19.849 25.7464 20.021 25.7018 20.2059C25.6572 20.3907 25.5807 20.5628 25.4724 20.7221C25.364 20.8815 25.2429 21.0026 25.1027 21.0918C24.988 21.1619 24.8605 21.2129 24.7203 21.2448C24.5801 21.2766 24.3697 21.2894 24.0893 21.2894H23.7388V21.3021ZM23.8981 20.7795H24.0574C24.4016 20.7795 24.6438 20.7412 24.7776 20.6648C24.9115 20.5883 25.0007 20.4544 25.0517 20.2569C25.1027 20.0465 25.0772 19.9 24.9752 19.8107C24.8733 19.7279 24.6566 19.6833 24.3251 19.6833H24.1658L23.8981 20.7795ZM17.1231 23.0739L18.0664 19.1288H18.9077C19.4558 19.1288 19.8318 19.1543 20.0421 19.2116C20.2525 19.269 20.4246 19.3646 20.5584 19.4984C20.7369 19.6705 20.8516 19.9 20.9026 20.1676C20.9536 20.4417 20.9344 20.754 20.8516 21.1045C20.7687 21.4551 20.6349 21.7674 20.4564 22.0351C20.278 22.3028 20.0549 22.5322 19.7936 22.7043C19.596 22.8381 19.3793 22.9337 19.1499 22.9911C18.9204 23.0485 18.5826 23.0739 18.1301 23.0739H17.1231ZM17.8879 22.494H18.4105C18.6973 22.494 18.9204 22.4748 19.0734 22.4366C19.2263 22.3984 19.3666 22.3282 19.5004 22.239C19.6789 22.1116 19.8254 21.9522 19.9402 21.7674C20.0613 21.5762 20.1505 21.3595 20.2079 21.1045C20.2652 20.8496 20.2843 20.6329 20.2588 20.4417C20.2334 20.2505 20.1632 20.0912 20.0485 19.9637C19.9593 19.8681 19.8509 19.8043 19.7044 19.7661C19.5641 19.7279 19.3283 19.7087 19.0096 19.7087H18.5507L17.8879 22.494ZM14.2614 23.0739L15.2047 19.1288H17.3525L17.2251 19.6705H15.7018L15.466 20.6584H16.9892L16.8554 21.2193H15.3321L15.0262 22.494H16.5495L16.4093 23.0676H14.2614V23.0739ZM12.7381 23.0739L13.6814 19.1288H14.306L13.3627 23.0739H12.7381ZM9.90192 23.0739L10.8452 19.1288H12.9931L12.8656 19.6705H11.3423L11.1065 20.652H12.6298L12.4959 21.2129H10.9727L10.5265 23.0676H9.90192V23.0739ZM8.37866 23.0739L9.32193 19.1288H9.94654L9.00326 23.0739H8.37866ZM4.04468 23.0739L5.0262 18.9694L6.89363 21.385C6.94462 21.4551 6.99561 21.5252 7.0466 21.6017C7.09759 21.6782 7.14857 21.7674 7.19956 21.863L7.85603 19.1288H8.43602L7.4545 23.2269L5.54883 20.7731C5.49784 20.7094 5.45322 20.6393 5.40861 20.5628C5.364 20.4863 5.32575 20.4098 5.28751 20.3333L4.63104 23.0739H4.04468ZM7.2378 3.80688C10.6731 3.8515 14.0957 3.80051 17.5246 3.80051C18.1301 3.80051 18.6209 4.29127 18.6209 4.89675C18.6209 5.04971 18.589 5.20268 18.5253 5.34927C18.3532 6.30529 17.5182 7.00638 16.5431 7.00638C13.1524 7 9.75533 7 6.35826 7.01912C5.79739 7.01912 5.77827 6.79605 5.91849 6.36265C6.14156 5.7253 6.32639 5.08158 6.46661 4.42511C6.47298 4.07457 6.75979 3.80051 7.11033 3.80051C7.15495 3.79414 7.19319 3.80051 7.2378 3.80688ZM5.364 9.99554C8.77381 9.99554 12.19 10.0019 15.6062 10.0147C16.7789 10.021 17.2442 11.0982 16.5558 12.2071C16.1862 12.8317 15.517 13.2142 14.7904 13.2142C11.4443 13.2142 8.1046 13.1759 4.75851 13.2205C4.24226 13.2269 4.00007 13.1568 4.21039 12.5577C4.44621 11.8885 4.61192 11.181 4.78401 10.4927C4.82862 10.2059 5.07719 9.99554 5.364 9.99554Z" fill="#66686C"/>
</svg>
