<svg width="58" height="24" viewBox="0 0 58 24" fill="none" xmlns="http://www.w3.org/2000/svg">
<path d="M27.1414 11.7153V18.3843H25.0039V1.89102H30.5615C31.9153 1.89102 33.1978 2.39299 34.1954 3.32522C35.1929 4.18573 35.6916 5.47651 35.6916 6.83899C35.6916 8.20148 35.1929 9.42054 34.1954 10.3528C33.1978 11.285 31.9865 11.787 30.5615 11.787L27.1414 11.7153ZM27.1414 3.89889V9.63567H30.704C31.4878 9.63567 32.2716 9.34883 32.7703 8.77516C33.9103 7.69951 33.9103 5.90677 32.8416 4.83112L32.7703 4.75941C32.2003 4.18573 31.4878 3.82718 30.704 3.89889H27.1414Z" fill="#5F6368"/>
<path d="M40.608 6.76715C42.1756 6.76715 43.3868 7.19741 44.3131 8.05793C45.2394 8.91844 45.6669 10.0658 45.6669 11.5V18.3841H43.6719V16.8065H43.6006C42.7456 18.0973 41.5343 18.7427 40.1093 18.7427C38.898 18.7427 37.8292 18.3841 36.9742 17.667C36.1904 16.9499 35.6917 15.946 35.6917 14.8704C35.6917 13.723 36.1192 12.7908 36.9742 12.0737C37.8292 11.3566 39.0405 11.0697 40.4655 11.0697C41.7481 11.0697 42.7456 11.2849 43.5294 11.7868V11.2849C43.5294 10.5678 43.2443 9.85067 42.6743 9.42041C42.1043 8.91844 41.3918 8.6316 40.608 8.6316C39.3967 8.6316 38.4705 9.13357 37.8292 10.1375L35.9767 8.99015C37.1167 7.48425 38.613 6.76715 40.608 6.76715ZM37.9005 14.9421C37.9005 15.5157 38.1855 16.0177 38.613 16.3045C39.1117 16.6631 39.6818 16.8782 40.2518 16.8782C41.1068 16.8782 41.9618 16.5197 42.6031 15.8743C43.3156 15.2289 43.6719 14.4401 43.6719 13.5796C43.0306 13.0776 42.1043 12.7908 40.893 12.7908C40.038 12.7908 39.3255 13.0059 38.7555 13.4362C38.1855 13.7947 37.9005 14.2967 37.9005 14.9421Z" fill="#5F6368"/>
<path d="M57.2097 7.1257L50.1558 23.4038H48.0182L50.6545 17.7387L46.0232 7.19741H48.3032L51.652 15.3006H51.7233L55.0009 7.19741H57.2097V7.1257Z" fill="#5F6368"/>
<path d="M18.6627 10.2811C18.6627 9.63569 18.5915 8.9903 18.5202 8.34491H9.61375V12.0021H14.6726C14.4589 13.1495 13.8176 14.2251 12.8201 14.8705V17.2369H15.8839C17.6652 15.5876 18.6627 13.1495 18.6627 10.2811Z" fill="#4285F4"/>
<path d="M9.61356 19.5319C12.1786 19.5319 14.3162 18.6714 15.8837 17.2372L12.8199 14.8708C11.9649 15.4444 10.8961 15.803 9.61356 15.803C7.191 15.803 5.05345 14.1537 4.34093 11.8589H1.20585V14.2971C2.84464 17.524 6.05097 19.5319 9.61356 19.5319Z" fill="#34A853"/>
<path d="M4.34106 11.859C3.91355 10.7116 3.91355 9.42084 4.34106 8.20177V5.76364H1.20598C-0.147803 8.4169 -0.147803 11.5721 1.20598 14.2971L4.34106 11.859Z" fill="#FBBC04"/>
<path d="M9.61363 4.32896C10.9674 4.32896 12.2499 4.83092 13.2475 5.76315L15.955 3.03818C14.245 1.46057 11.9649 0.52834 9.68488 0.600049C6.12229 0.600049 2.84471 2.60792 1.27717 5.83486L4.41225 8.27299C5.05351 5.97828 7.19107 4.32896 9.61363 4.32896Z" fill="#EA4335"/>
</svg>
