<svg width="72" height="24" viewBox="0 0 72 24" fill="none" xmlns="http://www.w3.org/2000/svg">
<path d="M70.8468 7.44553C70.2035 5.60625 68.4504 4.28548 66.3913 4.28548H66.3482C65.0096 4.28548 63.8032 4.8426 62.9445 5.73697C62.0843 4.8426 60.8779 4.28548 59.5408 4.28548H59.4977C58.321 4.28548 57.2454 4.7163 56.4194 5.42946V5.06694C56.3912 4.7059 56.094 4.42218 55.727 4.42218H52.5685C52.1822 4.42218 51.8702 4.73416 51.8702 5.1219V22.2741C51.8702 22.6618 52.1822 22.9739 52.5685 22.9739H55.727C56.0791 22.9739 56.3688 22.7109 56.4149 22.3707L56.4134 10.0573C56.4131 10.0162 56.4151 9.975 56.4193 9.93404C56.4699 9.38432 56.8725 8.9327 57.5084 8.87622H58.0907C58.3567 8.89997 58.581 8.99359 58.7578 9.13472C59.0326 9.35312 59.1857 9.68889 59.1857 10.0573L59.1975 22.3098C59.1975 22.6975 59.511 23.011 59.8958 23.011H63.0543C63.4273 23.011 63.7303 22.7139 63.7482 22.3439L63.7467 10.041C63.7452 9.63688 63.9324 9.27142 64.2608 9.05449C64.4227 8.95047 64.6173 8.88068 64.8416 8.85988H65.424C66.1075 8.9193 66.5205 9.43781 66.519 10.041L66.5309 22.2771C66.5309 22.6648 66.8444 22.9768 67.2291 22.9768H70.3877C70.7725 22.9768 71.0859 22.6648 71.0859 22.2771V9.1169C71.0859 8.21954 70.985 7.83774 70.8468 7.44553ZM49.464 4.46686H47.6574V1.53115C47.6574 1.17904 47.3722 0.893799 47.02 0.893799C46.9784 0.893799 46.9383 0.899695 46.8997 0.907149C44.897 1.45686 45.2981 4.23065 41.6419 4.46686H41.2868C41.2333 4.46686 41.1828 4.47427 41.1338 4.48468C40.8218 4.55454 40.5871 4.83233 40.5871 5.16515V8.32369C40.5871 8.70848 40.9005 9.02193 41.2868 9.02193H43.1929L43.19 22.4154C43.19 22.7972 43.499 23.1062 43.8808 23.1062H47.0037C47.384 23.1062 47.6931 22.7972 47.6931 22.4154L47.6945 9.02193H49.464C49.8488 9.02193 50.1622 8.70848 50.1622 8.32369V5.16515C50.1622 4.78036 49.8488 4.46686 49.464 4.46686Z" fill="#00BAF2"/>
<path d="M38.0998 4.46725H34.9413C34.5565 4.46725 34.2445 4.78075 34.2445 5.1655V11.6966C34.2371 12.1007 33.9102 12.4246 33.5046 12.4246H32.1824C31.7723 12.4246 31.441 12.0947 31.441 11.6847L31.4291 5.16554C31.4291 4.78075 31.1156 4.46729 30.7309 4.46729H27.5723C27.186 4.46729 26.874 4.78075 26.874 5.16554V12.3235C26.874 15.0423 28.8128 16.9812 31.5331 16.9812C31.5331 16.9812 33.5744 16.9812 33.6369 16.993C34.0053 17.0346 34.292 17.3436 34.292 17.724C34.292 18.0999 34.0112 18.4074 33.6473 18.4535C33.6294 18.4564 33.6131 18.4609 33.5938 18.4639L28.9748 18.4802C28.5885 18.4802 28.2765 18.7937 28.2765 19.1784V22.3356C28.2765 22.7218 28.5885 23.0338 28.9748 23.0338H34.139C36.8607 23.0338 38.7981 21.0965 38.7981 18.3762V5.16554C38.7981 4.78075 38.4861 4.46725 38.0998 4.46725ZM7.52717 10.2547V12.204C7.52717 12.6125 7.19586 12.9453 6.78731 12.9453L4.78312 12.9468V9.04094H6.78731C7.19586 9.04094 7.52717 9.37073 7.52717 9.78079V10.2547ZM7.80499 4.46649H0.901023C0.522167 4.46649 0.216125 4.77405 0.216125 5.15139V8.24608C0.216125 8.25202 0.217599 8.25796 0.217599 8.2639C0.217599 8.27876 0.216125 8.29363 0.216125 8.30698V22.314C0.216125 22.6943 0.501362 23.0049 0.854992 23.0138H4.07291C4.4577 23.0138 4.77116 22.7018 4.77116 22.3155L4.78307 17.5152H7.80495C10.3335 17.5152 12.0956 15.7607 12.0956 13.2216V8.7661C12.0956 6.22706 10.3336 4.46649 7.80499 4.46649ZM20.6325 17.6701V18.1633C20.6325 18.2034 20.6266 18.242 20.6206 18.2792C20.6132 18.314 20.6033 18.3483 20.5909 18.3817C20.4928 18.658 20.2165 18.8586 19.8882 18.8586H18.5734C18.1633 18.8586 17.8291 18.5466 17.8291 18.1633V17.5676C17.8291 17.5601 17.8275 17.5527 17.8275 17.5453L17.8291 15.9601V15.4638L17.8305 15.4594C17.832 15.0775 18.1633 14.7685 18.5734 14.7685H19.8882C20.2997 14.7685 20.6325 15.079 20.6325 15.4638L20.6325 17.6701ZM20.1304 4.48464H15.7476C15.3599 4.48464 15.0464 4.77881 15.0464 5.13981V6.36848C15.0464 6.37589 15.0479 6.38482 15.0479 6.39223C15.0479 6.40116 15.0464 6.41004 15.0464 6.41897V8.10226C15.0464 8.48411 15.3792 8.79609 15.7893 8.79609H19.9625C20.2923 8.8481 20.5538 9.08878 20.591 9.46464V9.87172C20.5538 10.2298 20.2953 10.4912 19.9803 10.5209H17.9138C15.1653 10.5209 13.2071 12.3469 13.2071 14.9111V18.5838C13.2071 21.1332 14.8904 22.9472 17.6196 22.9472H23.3469C24.375 22.9472 25.2084 22.1687 25.2084 21.2104V9.22544C25.2084 6.31946 23.7109 4.48464 20.1304 4.48464Z" fill="#1F336B"/>
</svg>
