<svg width="100" height="28" viewBox="0 0 100 28" fill="none" xmlns="http://www.w3.org/2000/svg">
<path d="M68.4062 21.7567V16.8258C68.4062 15.6122 67.9554 15.0054 66.8288 15.0054C66.378 15.0054 65.8523 15.0814 65.5517 15.157V22.3635C65.5517 22.5911 65.3263 22.8187 65.1009 22.8187H63.373C63.1476 22.8187 62.9222 22.5911 62.9222 22.3635V13.9434C62.9222 13.6398 63.1476 13.4126 63.373 13.3366C64.5 12.9574 65.6265 12.7298 66.8284 12.7298C69.5328 12.7298 71.0353 14.171 71.0353 16.8262V22.4395C71.0353 22.6671 70.8099 22.8947 70.5845 22.8947H69.5328C68.857 22.8943 68.4062 22.3635 68.4062 21.7567ZM75.1673 18.7982L75.092 19.481C75.092 20.3915 75.6929 20.9223 76.6694 20.9223C77.4205 20.9223 78.0966 20.6947 78.8481 20.3154C78.9234 20.3154 78.9982 20.2394 79.0735 20.2394C79.2236 20.2394 79.2989 20.3155 79.3742 20.3911C79.4494 20.4671 79.5996 20.6946 79.5996 20.6946C79.7497 20.9223 79.9002 21.2255 79.9002 21.4531C79.9002 21.8323 79.6748 22.2115 79.3746 22.3635C78.5482 22.8187 77.5718 23.0463 76.5201 23.0463C75.3182 23.0463 74.3414 22.7427 73.5903 22.1359C72.8392 21.4531 72.3884 20.543 72.3884 19.405V16.4466C72.3884 14.095 73.891 12.6538 76.4452 12.6538C78.9242 12.6538 80.3514 14.0194 80.3514 16.4466V18.267C80.3514 18.4946 80.126 18.7222 79.9006 18.7222H75.1681L75.1673 18.7982ZM75.092 17.1294H77.9465V16.371C77.9465 15.4606 77.4208 14.8538 76.5193 14.8538C75.6177 14.8538 75.092 15.3846 75.092 16.371V17.1294ZM94.2484 18.7982L94.1731 19.481C94.1731 20.3915 94.774 20.9223 95.7505 20.9223C96.5015 20.9223 97.1777 20.6947 97.9292 20.3154C98.0045 20.3154 98.0793 20.2394 98.1546 20.2394C98.3047 20.2394 98.38 20.3155 98.4553 20.3911C98.5305 20.4671 98.6806 20.6946 98.6806 20.6946C98.8308 20.9223 98.9813 21.2255 98.9813 21.4531C98.9813 21.8323 98.7559 22.2115 98.4557 22.3635C97.6293 22.8187 96.6529 23.0463 95.6011 23.0463C94.3993 23.0463 93.4224 22.7427 92.6714 22.1359C91.9203 21.4531 91.4695 20.543 91.4695 19.405V16.4466C91.4695 14.095 92.972 12.6538 95.5263 12.6538C98.0052 12.6538 99.4325 14.0194 99.4325 16.4466V18.267C99.4325 18.4946 99.2071 18.7222 98.9817 18.7222H94.2492V18.7982H94.2484ZM94.1731 17.1294H97.0276V16.371C97.0276 15.4606 96.5019 14.8538 95.6004 14.8538C94.6988 14.8538 94.1731 15.3846 94.1731 16.371V17.1294ZM50.0013 22.8943H51.053C51.2784 22.8943 51.5038 22.6667 51.5038 22.4391V16.8258C51.5038 14.2466 50.1514 12.7294 47.8978 12.7294C47.2217 12.7294 46.4706 12.881 46.0198 13.033V10.2262C46.0198 9.61943 45.4941 9.08823 44.8928 9.08823H43.8411C43.6157 9.08823 43.3903 9.31583 43.3903 9.54343V22.4391C43.3903 22.6667 43.6157 22.8943 43.8411 22.8943H45.569C45.7944 22.8943 46.0198 22.6667 46.0198 22.4391V15.3086C46.3953 15.157 46.9214 15.081 47.2969 15.081C48.4239 15.081 48.8743 15.6118 48.8743 16.9014V21.8323C48.9496 22.3635 49.4004 22.8943 50.0013 22.8943ZM61.3448 16.5222V19.329C61.3448 21.6807 59.7674 23.1219 57.1379 23.1219C54.5837 23.1219 52.931 21.6807 52.931 19.329V16.5222C52.931 14.1706 54.5084 12.7294 57.1379 12.7294C59.7674 12.7294 61.3448 14.171 61.3448 16.5222ZM58.7157 16.5222C58.7157 15.6118 58.19 15.005 57.2132 15.005C56.2363 15.005 55.7107 15.5358 55.7107 16.5222V19.329C55.7107 20.2395 56.2363 20.7703 57.2132 20.7703C58.19 20.7703 58.7157 20.2395 58.7157 19.329V16.5222ZM41.9634 15.233C41.9634 17.6606 40.1607 19.3294 37.7566 19.3294C37.1556 19.3294 36.6296 19.2534 36.1039 19.0258V22.4395C36.1039 22.6671 35.8785 22.8947 35.6531 22.8947H33.9252C33.6998 22.8947 33.4744 22.6671 33.4744 22.4395V10.3782C33.4744 10.0746 33.6998 9.84743 33.9252 9.77143C35.0522 9.39223 36.1788 9.16463 37.3806 9.16463C40.085 9.16463 41.963 10.8334 41.963 13.4126C41.9634 13.4122 41.9634 15.233 41.9634 15.233ZM39.2591 13.2606C39.2591 12.047 38.4328 11.4402 37.3058 11.4402C36.6296 11.4402 36.1788 11.6678 36.1788 11.6678V16.6742C36.6296 16.9018 36.855 16.9778 37.3806 16.9778C38.5076 16.9778 39.3339 16.295 39.3339 15.1574V13.261H39.2591V13.2606ZM90.4923 15.233C90.4923 17.6606 88.6895 19.3294 86.2854 19.3294C85.6845 19.3294 85.1584 19.2534 84.6328 19.0258V22.4395C84.6328 22.6671 84.4074 22.8947 84.182 22.8947H82.4541C82.2287 22.8947 82.0033 22.6671 82.0033 22.4395V10.3782C82.0033 10.0746 82.2287 9.84743 82.4541 9.77143C83.581 9.39223 84.7076 9.16463 85.9095 9.16463C88.6138 9.16463 90.4919 10.8334 90.4919 13.4126C90.4923 13.4122 90.4923 15.233 90.4923 15.233ZM87.7879 13.2606C87.7879 12.047 86.9616 11.4402 85.8346 11.4402C85.1584 11.4402 84.7076 11.6678 84.7076 11.6678V16.6742C85.1584 16.9018 85.3838 16.9778 85.9095 16.9778C87.0365 16.9778 87.8628 16.295 87.8628 15.1574V13.261H87.7879V13.2606Z" fill="#5F259F"/>
<path d="M13.8273 27.332C21.1904 27.332 27.1593 21.363 27.1593 14C27.1593 6.63698 21.1904 0.66806 13.8273 0.66806C6.46431 0.66806 0.495392 6.63698 0.495392 14C0.495392 21.363 6.46431 27.332 13.8273 27.332Z" fill="#5F259F"/>
<path d="M20.1425 10.2944C20.1425 9.77704 19.6966 9.33336 19.1768 9.33336H17.3938L13.3077 4.67556C12.9363 4.23189 12.3419 4.08413 11.7476 4.23189L10.3361 4.67556C10.1132 4.74964 10.0387 5.04516 10.1876 5.19292L14.6452 9.40744H7.8836C7.66069 9.40744 7.51221 9.5552 7.51221 9.77704V10.5162C7.51221 11.0336 7.95804 11.4773 8.47792 11.4773H9.51807V15.0263C9.51807 17.6879 10.9296 19.2408 13.3073 19.2408C14.0501 19.2408 14.6448 19.1667 15.3876 18.8712V21.2373C15.3876 21.9028 15.9074 22.4202 16.5762 22.4202H17.6163C17.8393 22.4202 18.0622 22.1984 18.0622 21.9765V11.4036H19.7711C19.994 11.4036 20.1425 11.2558 20.1425 11.034V10.2944ZM15.3876 16.6528C14.9417 16.8747 14.3474 16.9487 13.9016 16.9487C12.713 16.9487 12.1186 16.3573 12.1186 15.0263V11.4773H15.3876V16.6528Z" fill="white"/>
</svg>
