<svg width="24" height="18" viewBox="0 0 24 18" fill="none"
  xmlns="http://www.w3.org/2000/svg">
  <path d="M1.65768 0.927368H21.9554C22.7557 0.927368 23.4052 1.57752 23.4052 2.37937V16.1668C23.4052 16.968 22.7557 17.6181 21.9554 17.6181H1.65768C0.856649 17.6182 0.20787 16.968 0.20787 16.1669V2.37937C0.20787 1.57752 0.857364 0.927368 1.65768 0.927368Z" fill="#26A6D1"/>
  <path d="M3.94846 6.73254L1.6577 11.8071H4.40006L4.74003 10.998H5.51714L5.85711 11.8071H8.87568V11.1896L9.14465 11.8071H10.7061L10.9751 11.1765V11.8071H17.2529L18.0162 11.019L18.731 11.8071L21.9554 11.8136L19.6574 9.28398L21.9554 6.73254H18.781L18.0379 7.50606L17.3457 6.73254H10.5162L9.92978 8.04233L9.32958 6.73254H6.59295V7.32906L6.28851 6.73254H3.94846ZM4.47909 7.45313H5.81584L7.3353 10.8942V7.45313H8.79967L9.97327 9.92037L11.0549 7.45313H12.5119V11.0945H11.6254L11.6181 8.24114L10.3256 11.0945H9.53248L8.2327 8.24114V11.0945H6.40881L6.06303 10.2781H4.19493L3.84987 11.0937H2.87265L4.47909 7.45313ZM13.3231 7.45313H16.9281L18.0307 8.64537L19.1688 7.45313H20.2714L18.5961 9.28327L20.2714 11.0923H19.1188L18.0162 9.88623L16.8723 11.0923H13.3231V7.45313ZM5.12938 8.06923L4.51391 9.52346H5.74413L5.12938 8.06923ZM14.2133 8.20707V8.87179H16.18V9.61268H14.2133V10.3384H16.4192L17.4442 9.2695L16.4627 8.20644H14.2133V8.20707Z" fill="white"/>
</svg>
