<svg width="36" height="22" viewBox="0 0 36 22" fill="none"
  xmlns="http://www.w3.org/2000/svg">
  <path d="M35.8538 11.2728C35.8555 17.0509 31.1575 21.7359 25.3607 21.7375C19.5638 21.7389 14.8638 17.0563 14.8623 11.2782C14.8623 11.2763 14.8623 11.2747 14.8623 11.2728C14.8607 5.49485 19.5587 0.809641 25.3553 0.808106C31.1522 0.806571 35.8523 5.48942 35.8538 11.2675C35.8538 11.2693 35.8538 11.2709 35.8538 11.2728Z" fill="#FF9900"/>
  <path d="M11.2113 0.810966C5.44884 0.847451 0.783081 5.5205 0.783081 11.273C0.783081 17.0479 5.48521 21.7349 11.2789 21.7349C13.9981 21.7349 16.4767 20.702 18.3418 19.009C18.3418 19.009 18.3414 19.0088 18.3409 19.0085H18.3432C18.7251 18.6616 19.0813 18.2873 19.4087 17.8882H17.2584C16.9712 17.5425 16.7103 17.1823 16.4758 16.8106H20.1845C20.41 16.4508 20.6142 16.0772 20.7955 15.6903H15.8635C15.6954 15.3311 15.5495 14.9638 15.4249 14.5911H21.2346C21.5847 13.5483 21.7747 12.4326 21.7747 11.2729C21.7747 10.504 21.6911 9.7543 21.5329 9.03251H15.1168C15.1963 8.66105 15.2966 8.29407 15.4162 7.93347H21.2281C21.0981 7.54973 20.9472 7.17579 20.7756 6.8133H15.8629C16.0402 6.43593 16.2409 6.06884 16.4652 5.71438H20.1711C19.9245 5.32272 19.6515 4.94854 19.3565 4.59408H17.2902C17.6097 4.21931 17.9614 3.86639 18.3432 3.53731C16.478 1.84412 13.9987 0.810966 11.2789 0.810966C11.2563 0.810966 11.2339 0.810847 11.2113 0.810966Z" fill="#CC0000"/>
  <path d="M34.8009 16.7422C34.858 16.7422 34.9135 16.7569 34.9678 16.786C35.0223 16.815 35.0642 16.857 35.0945 16.9114C35.1249 16.9652 35.14 17.022 35.14 17.0808C35.14 17.1389 35.125 17.1951 35.0951 17.249C35.0654 17.3027 35.0235 17.3446 34.9695 17.3745C34.916 17.4039 34.8595 17.4188 34.8008 17.4188C34.742 17.4188 34.6856 17.4039 34.6319 17.3745C34.578 17.3445 34.5363 17.3028 34.5059 17.249C34.4761 17.1951 34.4613 17.1389 34.4613 17.0808C34.4613 17.022 34.4763 16.9652 34.5068 16.9114C34.5373 16.857 34.5795 16.8154 34.6336 16.786C34.6884 16.7569 34.7439 16.7422 34.8009 16.7422ZM34.8009 16.7983C34.7534 16.7983 34.707 16.8106 34.6616 16.835C34.6166 16.8594 34.5814 16.894 34.556 16.9398C34.5303 16.9849 34.5175 17.0317 34.5175 17.0808C34.5175 17.1295 34.5301 17.1765 34.5549 17.2211C34.5802 17.2656 34.6153 17.3006 34.66 17.3256C34.7052 17.3505 34.752 17.3628 34.8008 17.3628C34.8498 17.3628 34.8967 17.3505 34.9416 17.3256C34.9864 17.3006 35.0213 17.2656 35.0463 17.2211C35.0711 17.1765 35.0834 17.1296 35.0834 17.0808C35.0834 17.0317 35.0708 16.9848 35.0454 16.9398C35.0202 16.894 34.9848 16.8594 34.9395 16.835C34.8946 16.8104 34.8484 16.7983 34.8009 16.7983ZM34.6521 17.2676V16.9037H34.7779C34.8206 16.9037 34.8516 16.907 34.8708 16.9141C34.89 16.9208 34.9052 16.9323 34.9167 16.9492C34.928 16.9658 34.9338 16.9835 34.9338 17.0024C34.9338 17.0291 34.9243 17.0523 34.9051 17.0719C34.8864 17.0915 34.8609 17.1027 34.8294 17.105C34.8423 17.1103 34.8527 17.1171 34.8607 17.1244C34.8755 17.1386 34.8933 17.1625 34.9146 17.1964L34.959 17.2676H34.8872L34.855 17.2104C34.8296 17.1652 34.8091 17.1371 34.7933 17.1256C34.7825 17.1174 34.7668 17.1132 34.7463 17.1132H34.7116V17.268H34.6523M34.7111 17.0628H34.7826C34.8168 17.0628 34.8399 17.0576 34.8523 17.0475C34.8649 17.0371 34.8711 17.0239 34.8711 17.0071C34.8711 16.9963 34.8683 16.9866 34.8622 16.9783C34.8561 16.9697 34.8478 16.9636 34.837 16.9592C34.8265 16.9551 34.8068 16.9527 34.7781 16.9527H34.7113V17.0628" fill="#FCB340"/>
  <path d="M14.7619 14.2749L14.9017 13.3279C14.8253 13.3279 14.713 13.3609 14.6138 13.3609C14.2248 13.3609 14.1762 13.1536 14.2067 13.0023L14.5901 11.0977H15.1814L15.3033 10.0229H14.746L14.8594 9.37158H13.6936C13.669 9.39614 13.034 13.0345 13.034 13.4778C13.034 14.1337 13.4034 14.4255 13.9243 14.4209C14.3321 14.4175 14.6499 14.305 14.7619 14.2749Z" fill="#000066"/>
  <path d="M15.1158 12.4693C15.1158 14.0435 16.1581 14.4174 17.0463 14.4174C17.8661 14.4174 18.296 14.228 18.296 14.228L18.4928 13.1535C18.4928 13.1535 17.8001 13.4343 17.2371 13.4343C16.037 13.4343 16.2474 12.5424 16.2474 12.5424L18.5529 12.5493C18.5529 12.5493 18.6997 11.8278 18.6997 11.5337C18.6997 10.7996 18.2985 9.89844 17.0715 9.89844C15.9478 9.89867 15.1158 11.1055 15.1158 12.4693ZM17.0757 10.8959C17.7064 10.8959 17.5901 11.6025 17.5901 11.6598H16.3494C16.3494 11.5866 16.4665 10.8959 17.0757 10.8959Z" fill="#000066"/>
  <path d="M24.1521 14.2744L24.3522 13.0601C24.3522 13.0601 23.8035 13.3341 23.4274 13.3341C22.6345 13.3341 22.3165 12.7308 22.3165 12.0824C22.3165 10.7674 22.9986 10.0439 23.7579 10.0439C24.3274 10.0439 24.7843 10.3625 24.7843 10.3625L24.9667 9.18261C24.9667 9.18261 24.4273 8.79426 23.8466 8.79202C22.0999 8.78517 21.1005 9.99733 21.1005 12.0928C21.1005 13.4817 21.8406 14.4269 23.1742 14.4269C23.5513 14.4269 24.1521 14.2744 24.1521 14.2744Z" fill="#000066"/>
  <path d="M8.61538 9.91614C7.84909 9.91614 7.26178 10.1616 7.26178 10.1616L7.0995 11.1212C7.0995 11.1212 7.58434 10.9249 8.31735 10.9249C8.73348 10.9249 9.03792 10.9715 9.03792 11.3086C9.03792 11.5133 9.00072 11.5889 9.00072 11.5889C9.00072 11.5889 8.67236 11.5616 8.52026 11.5616C7.42928 11.5616 6.5386 11.9728 6.5386 13.2123C6.5386 14.1891 7.20469 14.4131 7.61751 14.4131C8.40607 14.4131 8.7182 13.9169 8.73621 13.9154L8.72709 14.3273H9.71111L10.1501 11.2597C10.1501 9.95794 9.01103 9.91614 8.61538 9.91614ZM8.78572 12.407C8.80716 12.5943 8.73716 13.4799 8.06409 13.4799C7.71701 13.4799 7.62686 13.2154 7.62686 13.0593C7.62686 12.7542 7.79306 12.3883 8.61183 12.3883C8.80254 12.3883 8.75362 12.402 8.78572 12.407Z" fill="#000066"/>
  <path d="M11.196 14.3903C11.4478 14.3903 12.8866 14.4542 12.8866 12.9741C12.8866 11.5902 11.5547 11.8638 11.5547 11.3076C11.5547 11.0311 11.7719 10.944 12.1688 10.944C12.3262 10.944 12.9325 10.9939 12.9325 10.9939L13.0733 10.0103C13.0733 10.0103 12.681 9.92285 12.0423 9.92285C11.2156 9.92285 10.3764 10.2518 10.3764 11.3773C10.3764 12.6527 11.7756 12.5246 11.7756 13.0619C11.7756 13.4205 11.3847 13.45 11.0834 13.45C10.5621 13.45 10.0927 13.2716 10.0911 13.2802L9.94194 14.2537C9.96907 14.262 10.2587 14.3903 11.196 14.3903Z" fill="#000066"/>
  <path d="M33.3699 9.02368L33.168 10.5243C33.168 10.5243 32.7471 9.94514 32.0886 9.94514C30.8497 9.94514 30.2112 11.1758 30.2112 12.5895C30.2112 13.5023 30.6665 14.3969 31.597 14.3969C32.2664 14.3969 32.6375 13.9316 32.6375 13.9316L32.5884 14.3289H33.6756L34.5293 9.03183L33.3699 9.02368ZM32.89 11.9402C32.89 12.5286 32.5976 13.3146 31.9919 13.3146C31.5897 13.3146 31.4011 12.978 31.4011 12.4499C31.4011 11.5861 31.7902 11.0164 32.2814 11.0164C32.6835 11.0164 32.89 11.2915 32.89 11.9402Z" fill="#000066"/>
  <path d="M2.56447 14.3332L3.24476 10.334L3.34474 14.3332H4.11459L5.55087 10.334L4.91464 14.3332H6.05869L6.93965 9.02907L5.12229 9.01526L4.04126 12.2628L4.01165 9.02907H2.34615L1.45251 14.3332H2.56447Z" fill="#000066"/>
  <path d="M19.7823 14.3409C20.1076 12.4972 20.2235 11.0411 21.1721 11.3427C21.3083 10.629 21.633 10.0084 21.7813 9.70639C21.7813 9.70639 21.7344 9.63684 21.4412 9.63684C20.9407 9.63684 20.2725 10.6492 20.2725 10.6492L20.3724 10.0233H19.3316L18.6346 14.3408L19.7823 14.3409Z" fill="#000066"/>
  <path d="M26.4929 9.91602C25.7262 9.91602 25.1389 10.1615 25.1389 10.1615L24.9767 11.1211C24.9767 11.1211 25.4618 10.9247 26.1945 10.9247C26.6107 10.9247 26.915 10.9714 26.915 11.3085C26.915 11.5132 26.878 11.5888 26.878 11.5888C26.878 11.5888 26.5497 11.5615 26.3976 11.5615C25.3065 11.5615 24.416 11.9726 24.416 13.2122C24.416 14.189 25.0819 14.413 25.4947 14.413C26.2831 14.413 26.5954 13.9167 26.6133 13.9153L26.6041 14.3272H27.5883L28.0272 11.2596C28.0273 9.95781 26.8883 9.91602 26.4929 9.91602ZM26.663 12.4069C26.6843 12.5942 26.6143 13.4797 25.9413 13.4797C25.594 13.4797 25.504 13.2153 25.504 13.0592C25.504 12.7541 25.6701 12.3881 26.4889 12.3881C26.6798 12.3881 26.631 12.4018 26.663 12.4069Z" fill="#000066"/>
  <path d="M29.1599 14.3411C29.3385 12.9846 29.6691 11.0803 30.5495 11.3428C30.6856 10.6292 30.5543 10.631 30.2613 10.631C29.7605 10.631 29.6496 10.6492 29.6496 10.6492L29.7496 10.0233H28.7089L28.0119 14.341L29.1599 14.3411Z" fill="#000066"/>
  <path d="M15.0532 13.9366L15.1931 12.9898C15.1167 12.9898 15.0043 13.0224 14.9052 13.0224C14.5162 13.0224 14.4733 12.8162 14.498 12.6638L14.8123 10.7318H15.4035L15.5463 9.6845H14.9888L15.1023 9.0332H13.9848C13.9601 9.05776 13.3251 12.6962 13.3251 13.1393C13.3251 13.7952 13.6946 14.0873 14.2155 14.0826C14.6235 14.0791 14.9412 13.9666 15.0532 13.9366Z" fill="white"/>
  <path d="M15.4073 12.1314C15.4073 13.7056 16.4497 14.0796 17.3378 14.0796C18.1575 14.0796 18.5182 13.897 18.5182 13.897L18.715 12.8226C18.715 12.8226 18.0915 13.0964 17.5284 13.0964C16.3284 13.0964 16.5385 12.2046 16.5385 12.2046H18.8096C18.8096 12.2046 18.9562 11.4828 18.9562 11.1887C18.9562 10.4547 18.5897 9.56042 17.3628 9.56042C16.2391 9.56066 15.4073 10.7675 15.4073 12.1314ZM17.367 10.558C17.9977 10.558 17.8814 11.2645 17.8814 11.3216H16.6406C16.6406 11.2487 16.7579 10.558 17.367 10.558Z" fill="white"/>
  <path d="M24.4436 13.9361L24.6436 12.7217C24.6436 12.7217 24.0953 12.9958 23.7189 12.9958C22.9262 12.9958 22.6083 12.3924 22.6083 11.7442C22.6083 10.4292 23.2903 9.70575 24.0496 9.70575C24.6191 9.70575 25.0761 10.0244 25.0761 10.0244L25.2585 8.84451C25.2585 8.84451 24.5808 8.57117 23.9999 8.57117C22.7098 8.57117 21.4547 9.68674 21.4547 11.7819C21.4547 13.1711 22.1324 14.0887 23.466 14.0887C23.8431 14.0888 24.4436 13.9361 24.4436 13.9361Z" fill="white"/>
  <path d="M8.90687 9.57776C8.14057 9.57776 7.55315 9.82324 7.55315 9.82324L7.39098 10.7828C7.39098 10.7828 7.87582 10.5865 8.60871 10.5865C9.02485 10.5865 9.32928 10.6331 9.32928 10.9702C9.32928 11.175 9.29197 11.2505 9.29197 11.2505C9.29197 11.2505 8.96373 11.2231 8.81175 11.2231C7.84526 11.2231 6.82997 11.6343 6.82997 12.8738C6.82997 13.8505 7.49605 14.0746 7.90887 14.0746C8.69732 14.0746 9.03717 13.5647 9.05529 13.5631L9.01845 13.9888H10.0025L10.4415 10.9211C10.4415 9.61968 9.30251 9.57776 8.90687 9.57776ZM9.14627 12.0755C9.16759 12.2629 9.0284 13.1413 8.35557 13.1413C8.00849 13.1413 7.91823 12.877 7.91823 12.7207C7.91823 12.4158 8.08442 12.0498 8.90331 12.0498C9.09379 12.05 9.11417 12.0703 9.14627 12.0755Z" fill="white"/>
  <path d="M11.4873 14.0522C11.7391 14.0522 13.1781 14.116 13.1781 12.6359C13.1781 11.2522 11.846 11.5255 11.846 10.9696C11.846 10.6928 12.0631 10.6057 12.46 10.6057C12.6175 10.6057 13.2237 10.6557 13.2237 10.6557L13.3646 9.67209C13.3646 9.67209 12.9723 9.58459 12.3336 9.58459C11.5069 9.58459 10.6677 9.91355 10.6677 11.039C10.6677 12.3144 12.0669 12.1864 12.0669 12.7236C12.0669 13.0822 11.676 13.1114 11.3748 13.1114C10.8535 13.1114 10.384 12.9331 10.3824 12.9416L10.2334 13.9152C10.2604 13.9235 10.5499 14.0522 11.4873 14.0522Z" fill="white"/>
  <path d="M33.7003 8.69525L33.4593 10.1862C33.4593 10.1862 33.0386 9.60703 32.3801 9.60703C31.3562 9.60703 30.5027 10.8376 30.5027 12.2515C30.5027 13.1643 30.958 14.0586 31.8886 14.0586C32.558 14.0586 32.9291 13.5933 32.9291 13.5933L32.8799 13.9907H33.9669L34.8206 8.69348L33.7003 8.69525ZM33.1814 11.6023C33.1814 12.1906 32.8892 12.9765 32.2832 12.9765C31.8811 12.9765 31.6926 12.64 31.6926 12.1119C31.6926 11.2483 32.0818 10.6784 32.5728 10.6784C32.975 10.6783 33.1814 10.9538 33.1814 11.6023Z" fill="white"/>
  <path d="M2.85598 13.9954L3.53628 9.99624L3.63614 13.9954H4.4061L5.84239 9.99624L5.20616 13.9954H6.35021L7.23129 8.69116H5.46214L4.36038 11.9457L4.30305 8.69116H2.67226L1.7785 13.9954H2.85598Z" fill="white"/>
  <path d="M20.074 14.0023C20.3992 12.1584 20.4595 10.6612 21.2358 10.9353C21.3716 10.2216 21.5028 9.94559 21.6511 9.64355C21.6511 9.64355 21.5815 9.62903 21.4356 9.62903C20.9351 9.62903 20.5644 10.3106 20.5644 10.3106L20.664 9.68464H19.6235L18.9263 14.0023H20.074Z" fill="white"/>
  <path d="M27.0222 9.57776C26.2559 9.57776 25.6684 9.82324 25.6684 9.82324L25.5064 10.7828C25.5064 10.7828 25.9912 10.5865 26.7241 10.5865C27.1403 10.5865 27.4445 10.6331 27.4445 10.9702C27.4445 11.175 27.4074 11.2505 27.4074 11.2505C27.4074 11.2505 27.0791 11.2231 26.927 11.2231C25.9607 11.2231 24.9454 11.6343 24.9454 12.8738C24.9454 13.8505 25.6114 14.0746 26.0242 14.0746C26.8126 14.0746 27.1525 13.5647 27.1705 13.5631L27.1339 13.9888C27.1339 13.9888 28.1175 13.9888 28.1179 13.9888L28.5568 10.9211C28.5569 9.61968 27.4178 9.57776 27.0222 9.57776ZM27.2619 12.0755C27.2832 12.2629 27.1439 13.1413 26.4709 13.1413C26.1238 13.1413 26.0338 12.877 26.0338 12.7207C26.0338 12.4158 26.2 12.0498 27.0187 12.0498C27.2092 12.05 27.2295 12.0703 27.2619 12.0755Z" fill="white"/>
  <path d="M29.4562 14.0026C29.7816 12.1588 29.8419 10.6616 30.6179 10.9357C30.754 10.222 30.8852 9.94595 31.0334 9.64392C31.0334 9.64392 30.9639 9.62939 30.8179 9.62939C30.3175 9.62939 29.9467 10.3109 29.9467 10.3109L30.0463 9.68501H29.0058L28.3087 14.0026H29.4562Z" fill="white"/>
  <path d="M34.7965 13.3362C34.8532 13.3362 34.9091 13.3507 34.963 13.3802C35.0174 13.4088 35.0597 13.4508 35.09 13.5053C35.1205 13.5593 35.1354 13.6157 35.1354 13.6746C35.1354 13.7328 35.1205 13.789 35.0905 13.8427C35.0607 13.8964 35.0189 13.9386 34.965 13.9682C34.9113 13.9978 34.8549 14.0126 34.7964 14.0126C34.7374 14.0126 34.681 13.9978 34.6271 13.9682C34.5733 13.9384 34.5316 13.8964 34.5018 13.8427C34.4714 13.789 34.4566 13.7328 34.4566 13.6746C34.4566 13.6157 34.4717 13.5593 34.5021 13.5053C34.5327 13.4508 34.5751 13.409 34.6292 13.3802C34.6838 13.3507 34.7397 13.3362 34.7965 13.3362ZM34.7965 13.3919C34.749 13.3919 34.7025 13.4042 34.6572 13.4289C34.6119 13.453 34.5767 13.4878 34.5513 13.5334C34.5259 13.5784 34.5131 13.6255 34.5131 13.6743C34.5131 13.7232 34.5254 13.77 34.5502 13.8146C34.5754 13.8591 34.6105 13.8941 34.6557 13.9192C34.7005 13.9438 34.7473 13.9562 34.7965 13.9562C34.8453 13.9562 34.8924 13.9438 34.9372 13.9192C34.982 13.8941 35.017 13.8591 35.0419 13.8146C35.0669 13.7696 35.0791 13.7232 35.0791 13.6743C35.0791 13.6255 35.0664 13.5784 35.0411 13.5334C35.0159 13.4878 34.9807 13.453 34.9352 13.4289C34.8902 13.4043 34.8441 13.3919 34.7965 13.3919ZM34.6478 13.8614V13.4974H34.7735C34.8163 13.4974 34.8475 13.5008 34.8665 13.5077C34.8857 13.5142 34.9007 13.5259 34.9124 13.5428C34.9239 13.5596 34.9297 13.5772 34.9297 13.5961C34.9297 13.6226 34.92 13.6459 34.9008 13.6655C34.8821 13.6851 34.8569 13.6964 34.8254 13.6986C34.8379 13.704 34.8484 13.7105 34.8564 13.7178C34.871 13.7322 34.889 13.7563 34.9103 13.7899L34.955 13.8613H34.8828L34.8507 13.804C34.8251 13.7588 34.8046 13.7307 34.789 13.7192C34.7782 13.7108 34.7625 13.7067 34.7417 13.7067H34.7073V13.8615L34.6478 13.8614ZM34.7068 13.6565H34.7783C34.8126 13.6565 34.8357 13.6514 34.848 13.6413C34.8604 13.6314 34.867 13.6178 34.867 13.6009C34.867 13.5902 34.864 13.5805 34.8581 13.5723C34.852 13.5636 34.8436 13.5573 34.8328 13.553C34.8221 13.5488 34.8027 13.5467 34.7738 13.5467H34.7069V13.6565" fill="white"/>
</svg>
