<svg width="40" height="11" viewBox="0 0 40 11" fill="none" xmlns="http://www.w3.org/2000/svg">
<path d="M37.0145 0.808549L39.217 5.27094L34.5869 9.73547L37.0145 0.808549Z" fill="#008C44"/>
<path d="M35.4894 0.808549L37.6886 5.27094L33.0616 9.73547L35.4894 0.808549Z" fill="#F47920"/>
<path d="M0.177563 8.11182L2.37355 0.0391846H5.88436C6.98158 0.0391846 7.71453 0.21642 8.08743 0.581651C8.45765 0.943947 8.52897 1.53532 8.30581 2.36653C8.17083 2.85617 7.96569 3.26718 7.68386 3.59192C7.40433 3.91724 7.03565 4.17449 6.58165 4.36366C6.96682 4.45814 7.21184 4.64575 7.3217 4.92705C7.43098 5.20836 7.41832 5.61858 7.28565 6.15636L7.01858 7.28393L7.01782 7.31445C6.94075 7.63019 6.96356 7.79921 7.08914 7.8129L7.00823 8.11182H4.63318C4.64123 7.92187 4.65599 7.75206 4.67172 7.60945C4.68897 7.46352 4.71025 7.35045 4.73134 7.27278L4.95278 6.46662C5.06436 6.04739 5.07126 5.75493 4.96773 5.5865C4.86325 5.41357 4.62935 5.32847 4.26009 5.32847H3.26198L2.50085 8.11182H0.177563ZM3.75586 3.50936H4.8249C5.19953 3.50936 5.47599 3.45478 5.64643 3.34191C5.81764 3.22806 5.94475 3.03576 6.01933 2.75758C6.09659 2.47471 6.07761 2.27752 5.9668 2.16542C5.85617 2.05157 5.59141 1.99621 5.17518 1.99621H4.16749L3.75586 3.50936Z" fill="#1B3281"/>
<path d="M14.824 2.15487L13.2051 8.11183H11.2379L11.4796 7.23915C11.1334 7.58618 10.7791 7.84969 10.4219 8.01812C10.0676 8.18949 9.69375 8.2738 9.30015 8.2738C8.9748 8.2738 8.69546 8.21355 8.47057 8.09403C8.24299 7.97489 8.07351 7.79374 7.95944 7.55488C7.85821 7.34576 7.81411 7.08754 7.83137 6.77904C7.84958 6.47543 7.95464 5.96329 8.14943 5.24613L8.98841 2.15487H11.1403L10.303 5.23165C10.1807 5.68198 10.1516 5.9985 10.2112 6.17084C10.2733 6.34475 10.4392 6.43454 10.7083 6.43454C10.9794 6.43454 11.2074 6.33438 11.3957 6.12996C11.5866 5.92729 11.7341 5.62505 11.8449 5.22285L12.6752 2.15487H14.824Z" fill="#1B3281"/>
<path d="M14.0433 8.11182L16.237 0.0391846H19.2547C19.9206 0.0391846 20.4359 0.0792875 20.8034 0.167318C21.1702 0.251632 21.4578 0.388569 21.6716 0.581651C21.9394 0.834201 22.1035 1.14681 22.171 1.52182C22.2345 1.89683 22.1969 2.33366 22.0579 2.84659C21.8121 3.749 21.3813 4.44054 20.7674 4.92373C20.1516 5.40066 19.3897 5.6403 18.4803 5.6403H17.0681L16.3973 8.11182H14.0433ZM17.6028 3.6688H18.3617C18.8523 3.6688 19.1972 3.60698 19.3993 3.48765C19.5948 3.36675 19.7338 3.15196 19.8186 2.84659C19.9033 2.53711 19.8814 2.32075 19.7534 2.19985C19.6301 2.07955 19.3151 2.01871 18.8111 2.01871H18.0538L17.6028 3.6688Z" fill="#1B3281"/>
<path d="M24.5893 8.11184L24.6112 7.54609C24.2641 7.81116 23.9127 8.01148 23.5594 8.13668C23.2076 8.26423 22.8329 8.32898 22.4317 8.32898C21.8222 8.32898 21.3971 8.15996 21.1514 7.83288C20.9086 7.50521 20.8688 7.03473 21.0344 6.43455C21.193 5.8422 21.475 5.40616 21.8818 5.12739C22.2863 4.8453 22.962 4.64342 23.9098 4.51431C24.0301 4.49435 24.1911 4.47831 24.3928 4.45347C25.0935 4.37072 25.4869 4.18018 25.5717 3.86933C25.6158 3.69914 25.5889 3.57355 25.4854 3.49647C25.3855 3.41646 25.1988 3.37714 24.9292 3.37714C24.7055 3.37714 24.5255 3.42448 24.3778 3.52288C24.2304 3.62226 24.1204 3.76741 24.0458 3.97164H21.9478C22.1372 3.30104 22.5243 2.79438 23.1054 2.45556C23.6844 2.11087 24.4478 1.94498 25.3934 1.94498C25.838 1.94498 26.2362 1.98743 26.5882 2.07957C26.9408 2.16779 27.1985 2.29358 27.3656 2.44577C27.5713 2.63573 27.6931 2.85228 27.7278 3.09173C27.7679 3.33058 27.724 3.67293 27.6013 4.12091L26.6988 7.44202C26.6699 7.55079 26.6643 7.64782 26.68 7.73604C26.6988 7.82016 26.7349 7.89215 26.7985 7.9436L26.75 8.11184H24.5893ZM25.1123 5.45193C24.8838 5.54564 24.5868 5.63543 24.2178 5.73402C23.6382 5.89267 23.3121 6.10434 23.2415 6.36628C23.1926 6.53471 23.2124 6.66441 23.2931 6.76301C23.3726 6.85671 23.5109 6.90405 23.7057 6.90405C24.0628 6.90405 24.3497 6.81191 24.5634 6.62998C24.7778 6.4457 24.938 6.15638 25.0502 5.7573C25.0698 5.6724 25.087 5.61137 25.0981 5.56579L25.1123 5.45193Z" fill="#1B3281"/>
<path d="M26.7664 10.4592L27.244 8.69604H27.8598C28.0655 8.69604 28.2273 8.65457 28.342 8.57906C28.4584 8.50061 28.5375 8.36837 28.5832 8.19035C28.606 8.11191 28.62 8.02935 28.6296 7.93565C28.6357 7.83627 28.6357 7.73122 28.6296 7.60954L28.301 2.15495H30.4791L30.4454 5.76931L32.3469 2.15495H34.3724L31.0108 8.08315C30.6292 8.74573 30.352 9.20095 30.176 9.44939C30.0023 9.6947 29.8374 9.88544 29.6773 10.0145C29.4699 10.1932 29.2383 10.3197 28.9883 10.3935C28.7377 10.4688 28.3562 10.5063 27.8433 10.5063C27.6957 10.5063 27.5258 10.5034 27.3422 10.4936C27.1598 10.4864 26.9652 10.4752 26.7664 10.4592Z" fill="#1B3281"/>
</svg>
