<svg width="32" height="11" viewBox="0 0 32 11" fill="none" xmlns="http://www.w3.org/2000/svg">
<path d="M13.8692 10.3553H11.3026L12.9079 0.2229H15.4744L13.8692 10.3553Z" fill="#00579F"/>
<path d="M23.1735 0.470562C22.6672 0.265547 21.8643 0.0391846 20.8714 0.0391846C18.3368 0.0391846 16.5519 1.41885 16.5409 3.39134C16.5199 4.84665 17.8189 5.65496 18.7904 6.14021C19.7834 6.63605 20.1209 6.95969 20.1209 7.40167C20.1108 8.08047 19.3185 8.39337 18.5796 8.39337C17.5549 8.39337 17.0058 8.23205 16.1714 7.8544L15.8334 7.69251L15.4743 9.96701C16.0762 10.247 17.1853 10.4954 18.3368 10.5063C21.0299 10.5063 22.7832 9.14795 22.8039 7.04594C22.8142 5.8925 22.1283 5.00869 20.6495 4.28648C19.7518 3.82286 19.202 3.51026 19.202 3.0359C19.2126 2.60467 19.667 2.16297 20.6804 2.16297C21.5148 2.14134 22.1278 2.34607 22.5923 2.55094L22.8244 2.65853L23.1735 0.470562Z" fill="#00579F"/>
<path d="M26.5848 6.76576C26.7961 6.18367 27.6095 3.93079 27.6095 3.93079C27.5988 3.95243 27.8204 3.33795 27.9472 2.96073L28.1265 3.8338C28.1265 3.8338 28.6126 6.25917 28.7181 6.76576C28.317 6.76576 27.0917 6.76576 26.5848 6.76576ZM29.7529 0.2229H27.7677C27.1554 0.2229 26.6903 0.405996 26.4262 1.06359L22.6137 10.3552H25.3068C25.3068 10.3552 25.7502 9.10459 25.8455 8.83525C26.141 8.83525 28.7608 8.83525 29.1409 8.83525C29.2146 9.19098 29.4471 10.3552 29.4471 10.3552H31.8236L29.7529 0.2229Z" fill="#00579F"/>
<path d="M9.1588 0.2229L6.64522 7.13224L6.37055 5.73094C5.90584 4.11403 4.44841 2.35729 2.822 1.48379L5.12435 10.3446H7.8385L11.8728 0.2229H9.1588Z" fill="#00579F"/>
<path d="M4.31114 0.2229H0.181673L0.139427 0.427629C3.36067 1.26846 5.49404 3.29526 6.37054 5.73137L5.47284 1.07462C5.32505 0.427486 4.87087 0.244247 4.31114 0.2229Z" fill="#FAA61A"/>
</svg>
