<svg width="27" height="18" viewBox="0 0 27 18" fill="none"
  xmlns="http://www.w3.org/2000/svg">
  <path d="M2.09387 0.927368H25.4508C26.1879 0.927368 26.7854 1.5252 26.7854 2.26263V16.2829C26.7854 17.0203 26.1879 17.6181 25.4508 17.6181H2.09387C1.35676 17.6181 0.759186 17.0203 0.759186 16.2829V2.26263C0.759186 1.5252 1.35676 0.927368 2.09387 0.927368Z" fill="#0079BE"/>
  <path d="M20.7771 9.32115C20.7771 6.00253 18.0083 3.70872 14.9745 3.70972H12.3638C9.29396 3.70862 6.76718 6.00319 6.76718 9.32115C6.76718 12.3565 9.29396 14.8505 12.3638 14.8358H14.9745C18.0081 14.8503 20.7771 12.3557 20.7771 9.32115Z" fill="white"/>
  <path d="M12.3802 4.17981C9.57508 4.18071 7.30212 6.46003 7.30145 9.27316C7.30212 12.0858 9.57521 14.3648 12.3802 14.3658C15.1861 14.3649 17.4597 12.0858 17.46 9.27316C17.4597 6.46003 15.1861 4.18081 12.3802 4.17981Z" fill="#0079BE"/>
  <path d="M9.16999 9.25946C9.17266 7.88478 10.0291 6.71255 11.2367 6.24678V12.2715C10.0291 11.8059 9.17263 10.6343 9.16999 9.25946ZM13.5411 12.2729V6.24658C14.7492 6.71125 15.607 7.88418 15.6091 9.2595C15.607 10.6352 14.7492 11.8072 13.5411 12.2728V12.2729Z" fill="white"/>
</svg>
