<svg width="19" height="15" viewBox="0 0 19 15" fill="none" xmlns="http://www.w3.org/2000/svg">
<path d="M1.48128 14.5111H0.106628V7.20031C0.106937 6.82159 0.257573 6.4584 0.525371 6.1906C0.793168 5.92281 1.15635 5.77231 1.53508 5.772H16.9354C17.3143 5.772 17.6776 5.92245 17.9454 6.19032C18.2133 6.45818 18.3636 6.82149 18.3636 7.20031V14.5111H17.0006L16.6286 13.3532C16.5454 13.0948 16.3825 12.8694 16.1632 12.7096C15.9438 12.5497 15.6794 12.4635 15.4079 12.4635H3.10899C2.84286 12.4633 2.58336 12.5461 2.3663 12.7C2.14923 12.854 1.98528 13.0717 1.89746 13.3229L1.48128 14.5111Z" fill="#93288E"/>
<path d="M0.444703 6.2709V6.01683C0.444549 5.80319 0.48656 5.59154 0.568247 5.39413C0.649935 5.19672 0.769592 5.01729 0.920662 4.86622C1.07173 4.71515 1.2513 4.59535 1.44872 4.51366C1.64613 4.43197 1.85763 4.39011 2.07128 4.39026H16.2963C16.5098 4.39026 16.7213 4.43233 16.9185 4.51409C17.1158 4.59584 17.2951 4.71559 17.446 4.86665C17.597 5.0177 17.7165 5.19708 17.7982 5.39441C17.8798 5.59175 17.9219 5.80329 17.9217 6.01683V6.18237" fill="#770071"/>
<path d="M3.87053 0.260361H14.6291C15.093 0.260361 15.5378 0.444628 15.8658 0.772626C16.1938 1.10062 16.3781 1.54548 16.3781 2.00934V4.39145H2.12155V2.00934C2.12155 1.54548 2.30582 1.10062 2.63382 0.772626C2.96181 0.444628 3.40667 0.260361 3.87053 0.260361Z" fill="#93288E"/>
<path d="M5.36753 2.32542H7.40334C7.71258 2.32542 8.00915 2.44827 8.22782 2.66693C8.44648 2.8856 8.56933 3.18217 8.56933 3.49141V4.39039H4.20154V3.49141C4.20154 3.18217 4.32438 2.8856 4.54305 2.66693C4.76171 2.44827 5.05829 2.32542 5.36753 2.32542Z" fill="white"/>
<path d="M11.0681 2.32542H13.104C13.4132 2.32542 13.7098 2.44827 13.9284 2.66693C14.1471 2.8856 14.2699 3.18217 14.2699 3.49141V4.39039H9.90216V3.49141C9.90216 3.18217 10.025 2.8856 10.2437 2.66693C10.4623 2.44827 10.7589 2.32542 11.0681 2.32542Z" fill="white"/>
<path d="M18.3625 8.98657H0.106628V10.3671H18.3625V8.98657Z" fill="white"/>
</svg>
