<svg width="17" height="18" viewBox="0 0 17 18" fill="none"
  xmlns="http://www.w3.org/2000/svg">
  <path fill-rule="evenodd" clip-rule="evenodd" d="M12.6176 1.0979L12.6185 1.75371C15.089 1.94259 16.7209 3.58474 16.7235 6.10305L16.7333 13.4744C16.7368 16.22 14.9685 17.9094 12.1342 17.9138L5.21078 17.9225C2.39413 17.926 0.603734 16.1964 0.600192 13.4429L0.590452 6.15814C0.586911 3.62321 2.16126 1.98543 4.63169 1.76421L4.6308 1.1084C4.62992 0.723654 4.92212 0.434222 5.31172 0.434222C5.70132 0.433348 5.99352 0.721905 5.99441 1.10665L5.99529 1.71874L11.2549 1.71174L11.254 1.09965C11.2531 0.714909 11.5453 0.426352 11.9349 0.425478C12.3157 0.424604 12.6168 0.713161 12.6176 1.0979ZM1.95495 6.4284L15.3608 6.41091V6.10486C15.3227 4.22487 14.3558 3.23853 12.6203 3.09163L12.6212 3.76493C12.6212 4.14093 12.321 4.4391 11.9403 4.4391C11.5507 4.43998 11.2576 4.14268 11.2576 3.76668L11.2567 3.0584L5.99707 3.0654L5.99795 3.7728C5.99795 4.14967 5.70664 4.44697 5.31704 4.44697C4.92743 4.44785 4.63435 4.15142 4.63435 3.77455L4.63346 3.10125C2.90682 3.27001 1.95141 4.25985 1.95406 6.15645L1.95495 6.4284ZM11.5675 10.4026V10.4123C11.5763 10.8145 11.9128 11.1197 12.321 11.1109C12.7195 11.1013 13.0373 10.7681 13.0285 10.3659C13.0099 9.98116 12.6902 9.66725 12.2927 9.66812C11.8854 9.67687 11.5666 10.0004 11.5675 10.4026ZM12.2989 14.3287C11.8916 14.32 11.5631 13.9886 11.5622 13.5863C11.5533 13.1841 11.8801 12.851 12.2874 12.8413H12.2962C12.7124 12.8413 13.0497 13.1727 13.0497 13.5837C13.0506 13.9947 12.7142 14.3278 12.2989 14.3287ZM7.9194 10.4166C7.9371 10.8188 8.27446 11.1328 8.68178 11.1153C9.08023 11.0969 9.39811 10.7646 9.3804 10.3624C9.37066 9.96892 9.04304 9.66287 8.64459 9.66375C8.23728 9.68123 7.91851 10.0144 7.9194 10.4166ZM8.68532 14.2894C8.27801 14.3069 7.94153 13.993 7.92294 13.5907C7.92294 13.1885 8.24082 12.8562 8.64813 12.8379C9.04658 12.837 9.37509 13.143 9.38394 13.5356C9.40254 13.9388 9.08377 14.271 8.68532 14.2894ZM4.27131 10.4472C4.28902 10.8494 4.62638 11.1642 5.03369 11.1459C5.43214 11.1284 5.75002 10.7952 5.73143 10.393C5.72257 9.99951 5.39495 9.69347 4.99561 9.69434C4.5883 9.71183 4.27042 10.045 4.27131 10.4472ZM5.03723 14.2937C4.62992 14.3121 4.29344 13.9973 4.27485 13.595C4.27396 13.1928 4.59273 12.8597 5.00004 12.8422C5.3985 12.8413 5.727 13.1473 5.73586 13.5408C5.75445 13.9431 5.43657 14.2762 5.03723 14.2937Z" fill="#C4C4C4"/>
</svg>
