<svg width="29" height="28" viewBox="0 0 29 28" fill="none" xmlns="http://www.w3.org/2000/svg">
<path d="M13.5867 11.6095C11.0408 11.6095 8.49413 11.6059 5.94821 11.6146C5.6752 11.6153 5.57327 11.5855 5.63443 11.2637C5.85575 10.1127 6.04285 8.95512 6.23796 7.79901C6.26709 7.62865 6.31295 7.55148 6.51971 7.58861C9.21998 8.0742 11.9224 8.54597 14.6234 9.02865C17.6928 9.57759 20.7607 10.1338 23.8301 10.6856C24.2698 10.765 24.7096 10.8495 25.1522 10.9092C25.3451 10.9354 25.3925 10.998 25.3582 11.188C24.9498 13.4725 24.5487 15.7586 24.1461 18.0439C24.0616 18.5236 23.8184 18.7093 23.3365 18.6612C23.2404 18.6518 23.1443 18.6256 23.0482 18.6248C22.7948 18.6219 22.706 18.5214 22.7082 18.2492C22.7228 16.5521 22.7097 14.8544 22.7184 13.1566C22.7213 12.6229 22.5546 12.1854 22.1185 11.8651C21.8076 11.6372 21.4473 11.6088 21.0796 11.6088C18.5817 11.6088 16.0846 11.6088 13.5867 11.6088V11.6095Z" fill="#93288E"/>
<path d="M25.3765 10.1353C24.4366 9.97001 23.5556 9.81566 22.6755 9.66059C20.4986 9.27692 18.3204 8.89689 16.1443 8.50812C13.7658 8.08295 11.3895 7.64832 9.01178 7.22169C8.25099 7.08482 7.48947 6.94941 6.72431 6.83729C6.47751 6.80089 6.42873 6.70042 6.47241 6.48201C6.55249 6.07941 6.61802 5.67317 6.69373 5.26984C6.78037 4.80681 7.1058 4.58986 7.56227 4.6714C9.833 5.0791 12.1052 5.48388 14.3766 5.88939C16.7668 6.31602 19.1569 6.7441 21.5477 7.16927C22.7366 7.3804 23.9262 7.59007 25.1173 7.79319C25.6531 7.8842 25.8715 8.17832 25.7783 8.70687C25.7092 9.10001 25.656 9.49533 25.5767 9.88628C25.5526 10.0035 25.5716 10.2285 25.3772 10.136L25.3765 10.1353Z" fill="#93288E"/>
<path d="M21.9045 13.2068C21.9045 12.588 21.7247 12.4118 21.1022 12.4118C15.184 12.4111 9.26587 12.4111 3.34771 12.4118C2.70631 12.4118 2.52722 12.5917 2.52722 13.2323C2.52649 16.3607 2.52649 19.4897 2.52649 22.6181C2.52649 23.2464 2.71723 23.4335 3.35426 23.4335C6.3137 23.4335 9.27242 23.4335 12.2319 23.4335C15.1913 23.4335 18.15 23.4335 21.1095 23.4335C21.7196 23.4335 21.9045 23.25 21.9052 22.6297C21.9067 19.489 21.9067 16.3476 21.9052 13.2068H21.9045ZM6.71922 21.8369C6.00429 21.8362 5.28864 21.8333 4.57371 21.8384C4.2825 21.8406 4.08666 21.7073 4.09394 21.4212C4.10049 21.1584 4.28978 21.0237 4.56425 21.0273C4.91589 21.0324 5.26752 21.0288 5.61844 21.0288C5.98172 21.0288 6.34574 21.0288 6.70903 21.0288C6.98932 21.0288 7.19171 21.1431 7.1837 21.4474C7.17642 21.7277 6.98422 21.8369 6.71849 21.8369H6.71922ZM7.04974 19.7759C6.81969 19.7759 6.58963 19.7737 6.3603 19.7737C6.13679 19.7737 5.91256 19.7759 5.68905 19.7766C5.46555 19.7773 5.24132 19.7766 5.01781 19.7722C4.32327 19.7569 3.92358 19.3434 3.91848 18.6518C3.9163 18.3132 3.91193 17.974 3.91994 17.6355C3.93377 17.0756 4.29924 16.6475 4.85764 16.6315C5.87325 16.6031 6.89031 16.606 7.90518 16.6315C8.4097 16.6446 8.76862 16.9846 8.82177 17.4957C8.86909 17.95 8.872 18.4166 8.82395 18.8709C8.7628 19.4439 8.35219 19.7591 7.73919 19.7715C7.50913 19.7759 7.2798 19.7766 7.04974 19.7759ZM11.0525 21.8376C10.7015 21.834 10.3506 21.8369 9.99972 21.8369C9.67284 21.8369 9.34668 21.8325 9.01979 21.8384C8.73659 21.8435 8.50508 21.7816 8.4876 21.4438C8.47304 21.1671 8.65869 21.031 9.03872 21.0295C9.70414 21.0281 10.3696 21.0317 11.035 21.0273C11.3189 21.0259 11.5577 21.0907 11.565 21.4249C11.5723 21.7605 11.3408 21.8406 11.0525 21.8376ZM15.4745 21.8384C15.1112 21.8318 14.7479 21.8369 14.3839 21.8369C14.0323 21.8369 13.6814 21.8362 13.3297 21.8369C13.0611 21.8369 12.8733 21.7226 12.8696 21.4409C12.8653 21.1598 13.0473 21.031 13.3166 21.0303C14.0432 21.0273 14.7705 21.0303 15.4978 21.0288C15.7694 21.0288 15.9594 21.1577 15.9608 21.427C15.9623 21.7175 15.7643 21.8435 15.4752 21.8384H15.4745ZM19.8769 21.8376C19.162 21.8347 18.4463 21.8347 17.7314 21.8376C17.4453 21.8391 17.2458 21.7182 17.2516 21.4212C17.2575 21.146 17.4511 21.0273 17.7205 21.0281C18.0838 21.0295 18.4478 21.0281 18.8111 21.0281C19.1627 21.0281 19.5144 21.0295 19.8653 21.0281C20.1507 21.0266 20.3501 21.1504 20.3443 21.4467C20.3385 21.7219 20.147 21.8384 19.8762 21.8376H19.8769Z" fill="#93288E"/>
<path d="M6.37339 18.9677C5.93657 18.9677 5.50048 18.9612 5.06366 18.9707C4.81686 18.9757 4.70765 18.8775 4.71712 18.6263C4.72804 18.3358 4.72658 18.0439 4.71712 17.7534C4.70984 17.508 4.81249 17.3974 5.06002 17.3988C5.94531 17.4032 6.83059 17.4017 7.71588 17.4003C7.94157 17.4003 8.04931 17.5015 8.04422 17.7323C8.03767 18.0351 8.03621 18.3387 8.04422 18.6416C8.05077 18.8746 7.94593 18.9721 7.71806 18.9699C7.26959 18.9648 6.82113 18.9685 6.37193 18.9685L6.37339 18.9677Z" fill="#93288E"/>
</svg>
