<svg width="19" height="15" viewBox="0 0 19 15" fill="none"
  xmlns="http://www.w3.org/2000/svg">
  <path d="M9.39159 14.2144C7.11411 14.2144 4.83735 14.2144 2.55987 14.2144C1.2317 14.2144 0.518815 13.5244 0.518815 12.2339C0.517369 8.87401 0.517369 5.51416 0.518815 2.15431C0.518815 0.87653 1.22881 0.175881 2.52372 0.175171C7.1264 0.175171 11.7291 0.175171 16.3318 0.175171C17.6267 0.175171 18.3374 0.87653 18.3374 2.15502C18.3388 5.51487 18.3388 8.87472 18.3374 12.2346C18.3374 13.5109 17.6238 14.2137 16.331 14.2144C14.0174 14.2158 11.7045 14.2144 9.39087 14.2144H9.39159ZM2.53457 7.17385H16.3159C16.4446 7.17385 16.5487 7.07163 16.5487 6.94527V3.96308C16.5487 3.83672 16.4446 3.7345 16.3159 3.7345H2.53457C2.40587 3.7345 2.30176 3.83672 2.30176 3.96308V6.94527C2.30176 7.07163 2.40587 7.17385 2.53457 7.17385ZM2.4572 11.5545H5.68906C5.77437 11.5545 5.84306 11.4871 5.84306 11.4033V10.0077C5.84306 9.92392 5.77437 9.85648 5.68906 9.85648H2.4572C2.37189 9.85648 2.3032 9.92392 2.3032 10.0077V11.4033C2.3032 11.4871 2.37189 11.5545 2.4572 11.5545Z" fill="#C4C4C4"/>
  <path d="M3.39639 10.374L3.18961 10.6409V10.6452L3.51786 10.6026V10.7481L3.18961 10.7098V10.714L3.39856 10.9703L3.26119 11.0469L3.13032 10.7481H3.12599L2.98428 11.0491L2.85992 10.9724L3.0667 10.7119V10.7076L2.74424 10.7481V10.6026L3.06453 10.643V10.6388L2.85992 10.3782L2.99295 10.3037L3.12815 10.6004H3.13249L3.26553 10.3016L3.39639 10.374Z" fill="#C4C4C4"/>
  <path d="M4.29943 10.374L4.09265 10.6409V10.6452L4.4209 10.6026V10.7481L4.09265 10.7098V10.714L4.3016 10.9703L4.16423 11.0469L4.03337 10.7481H4.02903L3.88732 11.0491L3.76296 10.9724L3.96974 10.7119V10.7076L3.64728 10.7481V10.6026L3.96757 10.643V10.6388L3.76296 10.3782L3.89599 10.3037L4.0312 10.6004H4.03553L4.16857 10.3016L4.29943 10.374Z" fill="#C4C4C4"/>
  <path d="M5.2032 10.374L4.99641 10.6409V10.6452L5.32466 10.6026V10.7481L4.99641 10.7098V10.714L5.20536 10.9703L5.06799 11.0469L4.93713 10.7481H4.93279L4.79108 11.0491L4.66672 10.9724L4.8735 10.7119V10.7076L4.55104 10.7481V10.6026L4.87133 10.643V10.6388L4.66672 10.3782L4.79976 10.3037L4.93496 10.6004H4.9393L5.07233 10.3016L5.2032 10.374Z" fill="#C4C4C4"/>
</svg>
