<svg width="13" height="14" viewBox="0 0 13 14" fill="none"
  xmlns="http://www.w3.org/2000/svg">
  <circle cx="6.3366" cy="6.88203" r="6.33649" fill="#92278F"/>
  <path d="M6.95471 9.25739C6.9534 9.6836 6.57706 10.0439 6.12633 10.05C5.73993 10.0554 5.40078 9.78747 5.30889 9.43917C5.30188 9.41196 5.29576 9.38394 5.29182 9.35591C5.29007 9.34478 5.28832 9.33406 5.28744 9.32293C5.28526 9.29902 5.2835 9.27512 5.2835 9.2508C5.2835 9.1428 5.3067 9.03976 5.34871 8.9466C5.47386 8.66631 5.76618 8.47052 6.11233 8.46722C6.17096 8.46681 6.22785 8.47176 6.28299 8.48165C6.33813 8.49154 6.39108 8.50679 6.44184 8.52658C6.54293 8.56574 6.63395 8.62344 6.71009 8.69475C6.74816 8.73061 6.78273 8.76977 6.81293 8.81181C6.87332 8.89631 6.91664 8.99235 6.93896 9.09664C6.9499 9.14857 6.95559 9.20257 6.95559 9.25781L6.95471 9.25739ZM6.9394 4.70556C6.77048 5.64865 6.59982 6.59175 6.42915 7.53443C6.41821 7.59502 6.40027 7.65438 6.38802 7.71456C6.35957 7.85841 6.2598 7.93137 6.11364 7.92972C5.96573 7.92807 5.87383 7.84811 5.84801 7.70508C5.76312 7.24054 5.67604 6.77641 5.5907 6.31228C5.4918 5.77355 5.39378 5.23481 5.29707 4.69608C5.28613 4.63549 5.28657 4.57325 5.28044 4.49163C5.29182 4.19032 5.43973 3.94548 5.7478 3.80327C6.05412 3.66189 6.35651 3.68745 6.6287 3.882C6.9197 4.08974 6.99847 4.37745 6.9394 4.70556Z" fill="white"/>
</svg>
