<svg width="29" height="28" viewBox="0 0 29 28" fill="none" xmlns="http://www.w3.org/2000/svg">
<path d="M14.1635 24.6663C10.6809 24.6663 7.19922 24.6663 3.71662 24.6663C2.63214 24.6663 2.52807 24.5604 2.52807 23.4567C2.52807 23.2139 2.5235 22.9701 2.52989 22.7273C2.54541 22.1842 2.77363 21.9514 3.30583 21.9304C3.42724 21.9258 3.54866 21.9286 3.67098 21.9286C10.6654 21.9286 17.6607 21.9286 24.6551 21.9286C25.6848 21.9286 25.7971 22.0436 25.7971 23.0925C25.7971 23.2906 25.7971 23.4877 25.7971 23.6858C25.7934 24.4727 25.6081 24.6635 24.8377 24.6672C24.488 24.669 24.1384 24.6672 23.7888 24.6672C20.58 24.6672 17.3722 24.6672 14.1635 24.6672V24.6663Z" fill="#005FB7"/>
<path d="M7.5479 16.4513C7.5479 17.9237 7.54059 19.3971 7.55429 20.8696C7.55702 21.158 7.49404 21.2603 7.18184 21.252C6.34747 21.2283 5.51129 21.2338 4.67692 21.2502C4.41584 21.2557 4.34647 21.1763 4.34738 20.9198C4.35559 17.9438 4.35833 14.9679 4.34464 11.9928C4.34373 11.6815 4.46514 11.6551 4.718 11.6596C5.53776 11.6733 6.35843 11.6797 7.17727 11.6569C7.48126 11.6487 7.55611 11.74 7.55337 12.0348C7.53877 13.5073 7.54698 14.9797 7.54698 16.4531L7.5479 16.4513Z" fill="#005FB7"/>
<path d="M12.1105 16.4486C12.1105 17.921 12.1041 19.3944 12.116 20.8669C12.1187 21.1499 12.0649 21.2621 11.7472 21.2521C10.9128 21.2265 10.0767 21.2338 9.2423 21.2494C8.98578 21.2539 8.9091 21.1827 8.91001 20.9216C8.91914 17.9457 8.91823 14.9697 8.91001 11.9947C8.91001 11.7482 8.96022 11.6506 9.23225 11.6569C10.0666 11.6752 10.9028 11.677 11.7372 11.6569C12.0348 11.6496 12.1197 11.73 12.1169 12.0312C12.1014 13.5037 12.1096 14.9761 12.1096 16.4495L12.1105 16.4486Z" fill="#005FB7"/>
<path d="M19.4105 16.4486C19.4105 17.921 19.4041 19.3944 19.416 20.8669C19.4187 21.1499 19.3648 21.2621 19.0472 21.2521C18.2128 21.2265 17.3766 21.2338 16.5423 21.2494C16.2857 21.2539 16.2091 21.1827 16.21 20.9216C16.2182 17.9457 16.2182 14.9697 16.21 11.9947C16.21 11.7482 16.2611 11.6515 16.5322 11.6569C17.3666 11.6752 18.2028 11.677 19.0371 11.6569C19.3347 11.6496 19.4196 11.7309 19.4169 12.0312C19.4014 13.5037 19.4096 14.9761 19.4096 16.4495L19.4105 16.4486Z" fill="#005FB7"/>
<path d="M23.9729 16.4367C23.9729 17.9091 23.9629 19.3825 23.9811 20.8549C23.9848 21.1781 23.8926 21.2612 23.5767 21.252C22.7725 21.2292 21.9673 21.2347 21.1631 21.2502C20.8892 21.2557 20.7687 21.2146 20.7697 20.8896C20.7834 17.9292 20.7815 14.9688 20.7715 12.0074C20.7706 11.7217 20.8509 11.6505 21.1284 11.6569C21.9628 11.6751 22.799 11.6779 23.6333 11.6569C23.9282 11.6496 23.9811 11.7518 23.9784 12.0193C23.9665 13.4917 23.9729 14.9651 23.9729 16.4376V16.4367Z" fill="#005FB7"/>
<path d="M25.7991 8.58602C25.8073 8.20627 25.6457 7.95523 25.3025 7.79639C24.9319 7.62477 24.5686 7.43489 24.2025 7.25232C21.0339 5.66575 17.8654 4.0801 14.6968 2.49171C14.4019 2.34383 14.1226 2.24889 13.7921 2.41503C10.1909 4.22068 6.58688 6.01995 2.98196 7.81921C2.67888 7.96983 2.52461 8.19988 2.52826 8.54129C2.53283 9.01233 2.52826 9.48337 2.52826 9.95532C2.53009 10.8043 2.70079 10.9787 3.53789 10.9796C7.07982 10.9805 10.6218 10.9796 14.1637 10.9796C17.7056 10.9796 21.2475 10.9796 24.7895 10.9796C25.6248 10.9796 25.7955 10.8034 25.7973 9.95441C25.7982 9.49798 25.7891 9.04246 25.7991 8.58602ZM14.1765 7.3217C13.8049 7.329 13.5028 7.04966 13.4845 6.68178C13.4653 6.29289 13.7602 5.97522 14.1482 5.967C14.5197 5.9597 14.8219 6.23904 14.8401 6.60692C14.8593 6.99672 14.5644 7.31348 14.1765 7.3217Z" fill="#005FB7"/>
</svg>
