<svg width="23" height="19" viewBox="0 0 23 19" fill="none" xmlns="http://www.w3.org/2000/svg">
<path d="M4.91375 17.3588C4.50787 16.6751 4.15018 15.9638 3.84356 15.2302C3.4468 14.2634 3.14348 13.261 2.93725 12.2365C2.90856 12.0931 2.94585 12.0572 3.07207 12.0127C5.69607 11.0785 8.31889 10.14 10.941 9.19708C11.0332 9.16107 11.1359 9.16107 11.2281 9.19708C13.8531 10.1036 16.4798 11.0058 19.1086 11.9037C19.285 11.964 19.2605 12.0472 19.2347 12.1806C18.9472 13.6345 18.4647 15.0429 17.8003 16.3676C17.7787 16.4106 17.7603 16.4552 17.733 16.5111C18.0113 16.5398 18.278 16.5584 18.542 16.5943C18.9972 16.6685 19.4407 16.8015 19.8615 16.9902C20.4541 17.2432 21.0921 17.373 21.7365 17.3717C21.8361 17.3638 21.9357 17.3852 22.0233 17.4334C22.0976 17.4719 22.1568 17.5342 22.1914 17.6104C22.226 17.6867 22.2341 17.7724 22.2141 17.8537C22.1985 17.9444 22.1501 18.0263 22.0783 18.0839C22.0064 18.1415 21.916 18.1709 21.824 18.1664C21.1631 18.1955 20.5034 18.084 19.8888 17.8393C19.1134 17.4901 18.2721 17.3111 17.4217 17.3144C16.8032 17.3272 16.1929 17.4577 15.6231 17.6988C14.4314 18.2086 13.106 18.3164 11.8476 18.0057C11.5307 17.9176 11.2199 17.8093 10.9168 17.6815C10.3051 17.4312 9.6499 17.3041 8.98898 17.3075C8.32807 17.311 7.6744 17.4449 7.06536 17.7016C5.72463 18.2744 4.21925 18.3307 2.83954 17.8594C2.27175 17.6182 1.67717 17.4462 1.06825 17.3473C0.87174 17.3329 0.67367 17.3286 0.475722 17.3172C0.421956 17.3191 0.368419 17.3103 0.318134 17.2912C0.267848 17.272 0.22186 17.243 0.182958 17.2058C0.144057 17.1686 0.11296 17.1241 0.0915572 17.0747C0.0701544 17.0254 0.0588288 16.9723 0.0582886 16.9185C0.0591459 16.8646 0.0709646 16.8116 0.092958 16.7624C0.114951 16.7133 0.146539 16.6691 0.18611 16.6326C0.225681 16.5961 0.272291 16.5681 0.323037 16.5501C0.373782 16.5322 0.427615 16.5247 0.481325 16.5283C1.13366 16.5103 1.78313 16.6219 2.39199 16.8567C3.1787 17.2282 4.04475 17.4007 4.91375 17.3588Z" fill="white"/>
<path d="M19.3931 11.1722L14.1807 9.3806C13.2312 9.05499 12.2814 8.73367 11.3347 8.40233C11.1646 8.33825 10.9771 8.33825 10.807 8.40233C8.20782 9.33325 5.60439 10.2584 3.00669 11.1965C2.79727 11.2726 2.74857 11.2353 2.71988 11.0316C2.64529 10.4091 2.58623 9.78655 2.56615 9.15971C2.55308 9.04884 2.58009 8.93691 2.64214 8.8441C2.70419 8.75129 2.79733 8.68363 2.90478 8.65333C5.55174 7.6349 8.19764 6.61363 10.8427 5.58947C10.9184 5.55802 10.9995 5.54184 11.0815 5.54184C11.1635 5.54184 11.2446 5.55802 11.3203 5.58947C13.9568 6.61172 16.5943 7.63113 19.2327 8.64764C19.345 8.67731 19.4427 8.74674 19.5076 8.84305C19.5725 8.93936 19.6 9.05597 19.5853 9.17118C19.5566 9.76502 19.5224 10.3574 19.4421 10.9455C19.4335 11.0187 19.4117 11.089 19.3931 11.1722Z" fill="white"/>
<path d="M5.84199 6.66162C5.84199 5.85405 5.84199 5.07083 5.84199 4.28764C5.84095 4.05048 5.92855 3.82155 6.08783 3.64582C6.2471 3.47009 6.46629 3.3603 6.70242 3.33809C6.80058 3.32812 6.89935 3.32429 6.99799 3.32662H15.2616C16.0605 3.32662 16.4193 3.6881 16.4193 4.49137C16.4193 5.1598 16.4193 5.82818 16.4193 6.49948C16.4193 6.70173 16.369 6.70752 16.1997 6.64297C14.6836 6.052 13.1616 5.4753 11.6468 4.88289C11.4483 4.804 11.2363 4.76559 11.0228 4.76978C10.8092 4.77396 10.5985 4.82071 10.4033 4.90731C8.91438 5.49972 7.41683 6.06771 5.92218 6.64577C5.89569 6.65236 5.86901 6.65769 5.84199 6.66162Z" fill="white"/>
<path d="M11.0954 2.53564C10.4456 2.53564 9.79462 2.53564 9.14484 2.53564C8.99136 2.53564 8.92969 2.50547 8.93542 2.33621C8.94833 1.92453 8.93542 1.51292 8.93542 1.10124C8.93542 0.774198 9.07876 0.636444 9.40293 0.636444C10.5313 0.636444 11.6594 0.636444 12.7869 0.636444C13.1053 0.636444 13.2501 0.779942 13.253 1.10842C13.253 1.52009 13.253 1.93171 13.253 2.34339C13.253 2.49543 13.2156 2.53848 13.0621 2.53704C12.4138 2.52987 11.7538 2.53564 11.0954 2.53564Z" fill="white"/>
</svg>
