<svg width="27" height="23" viewBox="0 0 27 23" fill="none"
  xmlns="http://www.w3.org/2000/svg">
  <path fill-rule="evenodd" clip-rule="evenodd" d="M20.9817 4.65029C20.8541 5.35762 20.8541 5.35762 20.7614 5.80985C20.5295 6.44761 20.228 6.95782 19.8453 7.51441C19.8221 7.52601 19.8105 7.5376 19.7874 7.5492C18.7206 8.76674 17.445 9.52046 15.9144 10.0539C15.6129 10.1234 15.6129 10.1234 15.5782 10.1466V10.2162C15.6825 10.3206 15.8796 10.2974 16.0072 10.2974C16.1231 10.3322 16.1232 10.3322 16.3087 10.3437C16.8653 10.5177 17.3987 10.7264 17.9089 11.0279C17.9437 11.0743 18.1872 11.2482 18.5814 11.5961C18.6974 11.7352 18.8133 11.8744 18.9293 12.0135C19.1728 12.3614 19.3467 12.7672 19.4975 13.1731C19.5438 13.3818 19.5902 13.5905 19.6366 13.7992C19.6598 14.0312 19.6598 14.0312 19.6598 14.6341C19.6134 14.924 19.5554 15.2139 19.5091 15.5038C19.4279 15.6777 19.4047 15.8053 19.2656 16.1532C18.9641 16.7561 18.6278 17.3127 18.1872 17.8229C17.6538 18.3795 17.074 18.8665 16.4594 19.3304C16.3551 19.3767 16.1927 19.4347 16.1231 19.5275C15.1723 20.0609 14.2331 20.4204 13.2011 20.7798C12.5633 20.9074 11.9371 21.0349 11.2878 21.1161C10.105 21.1857 10.105 21.1857 9.76877 21.2204C8.72517 21.2552 4.7015 21.4524 4.63193 21.4408C4.57395 21.3828 4.58554 21.232 4.63193 21.1741C5.71032 20.861 6.8119 20.5015 7.90188 20.2348C7.99465 20.2 9.82675 19.6666 10.0123 19.5971C10.8356 19.4231 11.6473 19.11 12.4589 18.8897C12.6445 18.8202 13.6185 18.5535 14.523 18.2868C15.3231 18.1012 16.1695 17.8461 16.9464 17.5794C16.9812 17.533 16.9812 17.4867 16.9812 17.4287C16.958 17.4171 16.9348 17.3939 16.9232 17.3823C16.8537 17.3823 15.8101 17.649 10.9399 18.8317C10.9167 18.8433 10.8935 18.8549 10.8819 18.8665C9.98909 19.0405 9.09623 19.2956 8.20337 19.5043C8.13379 19.5275 8.06422 19.5507 8.00624 19.5739C4.63193 20.374 4.63193 20.374 4.55076 20.4088H4.45799C4.38842 20.316 4.34204 20.3044 4.36523 20.1768C4.62033 20.0145 4.62033 20.0145 5.24649 19.655C5.40883 19.5855 6.95104 18.7042 7.10178 18.6346C8.33092 17.9041 9.60643 17.22 10.8356 16.501C11.8676 15.9328 12.9112 15.3415 13.9432 14.7733C13.978 14.7501 14.0128 14.7269 14.0475 14.6921C14.836 14.2863 15.6013 13.834 16.3783 13.405C16.7377 13.2543 17.1204 13.0223 17.445 12.802C17.503 12.7209 17.4566 12.6165 17.3639 12.6049C16.6102 12.9875 15.868 13.3818 15.1259 13.7645C15.01 13.7992 15.01 13.7992 14.894 13.8804C12.7604 14.9704 12.7604 14.9704 12.5865 15.04C12.343 15.1907 11.7052 15.5038 11.6473 15.5502C10.7196 16.014 9.79196 16.501 8.87591 16.9996C8.84112 17.0112 8.81793 17.0112 8.79474 17.0228C8.29613 17.3591 7.69316 17.5794 7.18296 17.8925C6.2901 18.3331 5.38564 18.797 4.50437 19.2608C4.40001 19.284 3.72747 19.7594 3.79704 19.2956C4.11012 19.0057 4.42321 18.7042 4.73629 18.4143C4.82905 18.3099 5.07256 18.0896 5.10734 18.078C5.44362 17.707 5.82627 17.2779 6.24371 16.9996C6.2669 16.9649 6.30169 16.9301 6.32488 16.8837C7.13657 16.13 7.95986 15.3647 8.73676 14.5646C11.0675 12.3382 13.4098 10.1118 15.7521 7.92026C15.8217 7.82749 15.8912 7.73473 15.9956 7.67675C17.4219 6.30847 17.5146 6.20411 19.2076 4.59231C19.3235 4.51114 19.3235 4.51114 19.3583 4.44157C19.3583 4.16327 19.196 4.29083 19.0452 4.40678C18.6278 4.82423 18.1756 5.19529 17.7465 5.60113C17.5842 5.83305 17.2943 5.99538 17.1088 6.2157C16.7029 6.58676 16.2275 7.08537 15.7637 7.41005C15.4274 7.74633 15.0448 8.09419 14.6737 8.38408C13.3402 9.6712 11.8676 10.8308 10.5457 12.1295C9.89632 12.6397 9.32814 13.3006 8.66719 13.7992C8.49326 13.9964 8.49326 13.9964 7.31051 15.0864C7.26412 15.1211 7.22934 15.1443 7.18296 15.1675C5.86106 16.3851 4.51597 17.5794 3.17088 18.7738C3.02014 18.7738 2.98535 18.739 2.99695 18.5882C4.60873 16.2459 6.22052 13.892 7.80912 11.5381C8.45847 10.5641 9.09623 9.56684 9.78037 8.616C10.2674 7.89707 10.3022 7.82749 10.4761 7.59558C11.7168 5.75188 13.0155 3.89658 14.2331 2.02968C14.3838 1.87894 14.3374 1.78617 14.1403 1.80936C13.1083 3.25882 12.0415 4.68508 11.0211 6.15772C10.8472 6.37804 10.5225 6.86506 7.067 11.7004C6.98583 11.828 5.7451 13.5209 5.66393 13.6253C4.55076 15.1791 3.43758 16.7561 2.30121 18.2868C2.24324 18.3331 2.18526 18.3795 2.10409 18.3331V18.194C2.91578 16.0836 3.77385 13.9616 4.65512 11.886C5.94223 8.65078 7.22934 5.39241 8.53964 2.15723C8.53964 2.08766 8.53964 2.08766 8.49326 2.02968C8.44687 2.02968 8.40049 2.04127 8.3657 2.07606C7.36848 4.31402 6.33648 6.55197 5.32766 8.78993C5.28128 8.84791 4.22608 11.2018 3.9246 11.8048C3.79704 12.1179 3.69268 12.315 3.55354 12.6397C2.69546 14.4486 1.87218 16.2923 1.04889 18.1244C0.94453 18.1708 0.851766 18.1824 0.747406 18.136C0.759002 18.0085 0.759001 18.0085 1.16485 16.5126C1.19963 16.4315 1.31559 15.9792 1.35038 15.8865C1.38516 15.7241 1.41995 15.643 1.8142 14.0891C2.02292 13.3122 2.23164 12.5353 2.45196 11.77C2.48674 11.6077 4.45799 4.47636 4.48118 4.372C4.55076 4.14008 4.60873 3.91977 4.67831 3.68785C4.93341 2.69063 5.20011 1.76298 5.39723 0.96288C5.42043 0.904902 5.44362 0.893306 5.49 0.858519C9.01506 0.858519 12.5517 0.870115 16.0884 0.846924C17.1668 0.904902 18.2683 1.09043 19.2656 1.55426C19.3699 1.63543 19.3699 1.63543 19.625 1.77457C19.8453 1.93691 20.0772 2.12244 20.286 2.33116C20.4019 2.4935 20.5063 2.65584 20.6222 2.81818C20.6918 2.98052 20.7498 3.15445 20.8194 3.31679C20.8657 3.5603 20.9237 3.80381 20.9701 4.03572C20.9701 4.22125 20.9701 4.42997 20.9817 4.65029ZM26.6288 5.56635C26.5592 6.06496 26.478 6.52878 26.3389 7.0042C26.049 7.60718 26.049 7.60718 25.8634 7.94345C25.5272 8.45366 25.0981 8.8827 24.6459 9.28854C24.2053 9.62482 24.2053 9.62482 23.7299 9.96109C23.1617 10.2974 22.5355 10.5641 21.9325 10.8424C21.7006 10.9119 21.4223 10.9699 21.2136 11.0975C21.2136 11.1554 21.2136 11.1554 21.2252 11.1786C22.0021 11.2598 22.6863 11.5265 23.3356 11.9555C23.6487 12.2222 23.9502 12.4889 24.2169 12.8136C24.5299 13.2658 24.7735 13.7065 24.959 14.2167C25.0054 14.4254 25.0518 14.6225 25.0981 14.8313C25.1329 15.1559 25.1329 15.4806 25.1329 15.8169C25.0286 16.7677 24.6807 17.6142 24.1705 18.4259C23.8458 18.8781 23.8458 18.8781 23.5211 19.2956C22.9645 19.8754 22.2804 20.5363 21.5383 20.8726C20.9933 21.2784 20.2628 21.5335 19.6366 21.7886C19.2424 21.9046 18.8365 22.0321 18.4423 22.1597C17.5494 22.322 17.5494 22.322 17.4566 22.3568C16.7725 22.4264 16.7725 22.4264 16.587 22.4612C12.6213 22.6235 8.60921 22.5539 4.64352 22.5539C4.59714 22.4728 4.57395 22.3568 4.67831 22.3104C6.57998 22.2293 8.49326 22.1365 10.3949 22.0785C10.766 22.0785 11.1718 22.0901 11.5313 22.0321C12.8068 21.9858 14.0475 21.9278 15.3115 21.7307C15.3926 21.6959 15.7289 21.6263 16.2275 21.4987C18.6974 20.6986 20.9469 19.1332 21.9905 16.675C22.0601 16.4546 22.0601 16.4546 22.1297 16.3271C22.1876 16.0488 22.2456 15.7705 22.3036 15.4922C22.3152 14.8081 22.3152 14.8081 22.3036 14.5414C22.2108 13.8804 21.9673 13.2195 21.5847 12.6745C21.4107 12.4889 21.2484 12.2918 21.0745 12.1063C20.2628 11.4685 19.4627 11.0395 18.4191 10.9583C18.4191 10.8771 18.4423 10.8656 18.5118 10.8308C18.7669 10.7612 18.7669 10.7612 19.1264 10.6336C20.773 9.91471 22.2456 8.95227 23.1733 7.37526C23.266 7.16654 23.3588 6.94623 23.4516 6.72591C23.6139 6.19251 23.7067 5.65911 23.753 5.10252C23.7299 4.85901 23.7183 4.6155 23.7067 4.372C23.6603 4.22125 23.6139 4.05891 23.5675 3.89657C23.3704 3.42115 23.1617 3.13126 22.8022 2.7718C22.234 2.31957 21.5963 1.9833 20.8773 1.82096C20.8773 1.80936 20.8773 1.78617 20.8889 1.77457C21.26 1.705 21.7122 1.77457 22.0833 1.79777C22.2572 1.83255 22.2572 1.83255 22.8834 1.90213C23.0921 1.94851 23.3008 1.99489 23.5211 2.04127C24.1937 2.2268 24.8662 2.45872 25.4344 2.86456C25.5967 3.01531 25.7707 3.16605 25.933 3.31679C26.0722 3.53711 26.2113 3.74583 26.3505 3.95455C26.42 4.16327 26.4896 4.3604 26.5592 4.56912C26.5708 4.87061 26.6172 5.21848 26.6288 5.56635Z" fill="#F94F00"/>
</svg>
