<svg width="21" height="23" viewBox="0 0 21 23" fill="none"
  xmlns="http://www.w3.org/2000/svg">
  <path d="M6.62431 5.15002C11.5808 0.225322 17.595 -1.05209 20.001 2.30329C22.4085 5.66012 20.2929 12.4431 15.3365 17.3664C10.3785 22.3258 4.36571 23.6017 1.92215 20.2102C-0.446268 16.8187 1.66927 10.0704 6.62431 5.15002Z" fill="#F06321"/>
  <path d="M20.0011 2.30372C20.8392 3.54356 21.095 5.18657 20.9129 7.04489C20.2568 9.56071 18.6528 12.2615 16.2469 14.5938C11.8005 18.9347 6.47839 20.0286 4.25592 17.0749C2.10425 14.1198 3.92789 8.21248 8.2659 3.9106C8.81213 3.39761 9.35835 2.92364 9.90602 2.52336C14.0244 -0.103717 18.1066 -0.320473 20.0011 2.30372Z" fill="#AE282E"/>
  <path d="M16.1746 3.06904V3.17887C16.1371 3.79879 15.7729 4.56466 15.1169 5.22071C14.1342 6.16865 12.8221 6.5328 12.273 5.98802C11.6545 5.40423 12.0201 4.12681 13.0042 3.10517C14.0244 2.1211 15.3365 1.79307 15.8827 2.37687C16.0648 2.55895 16.1746 2.77715 16.1746 3.06904ZM12.3843 19.8084C10.0506 21.5583 7.64601 22.4355 5.31227 22.0713C6.29634 22.1074 7.09978 21.0121 7.75583 19.5541C8.41188 18.0584 8.77603 16.6741 9.10405 15.3591C9.57803 13.2811 9.61415 11.8231 9.35838 11.4951C8.95811 10.9821 8.08386 11.0933 7.06221 11.6771C6.55212 11.969 5.89607 11.787 6.66338 10.839C7.46393 9.89107 10.5607 7.62814 11.6545 7.26399C12.8944 6.93597 14.2787 7.40994 13.8062 8.75816C13.4753 9.74224 9.17631 20.976 12.3843 19.8084Z" fill="white"/>
</svg>
